<svg width="1440" height="331" viewBox="0 0 1440 331" fill="none" xmlns="http://www.w3.org/2000/svg">
<g clip-path="url(#clip0_1_499)">
<path d="M1381.09 211.065L1480.88 245H1337.7L1319.35 242.997L1310.45 237.434L1340.82 211.065H1381.09Z" fill="#172B4D"/>
<path d="M1367.96 148.758V143.417C1367.96 143.417 1356.28 120.275 1354.61 120.052C1352.94 119.83 1217.22 63.3083 1217.22 63.3083L1268.95 164.001L1289.42 185.808L1367.96 148.758Z" fill="white" stroke="#36B37E" stroke-width="1.35786" stroke-miterlimit="10"/>
<mask id="mask0_1_499" style="mask-type:alpha" maskUnits="userSpaceOnUse" x="1216" y="62" width="154" height="126">
<path d="M1368.38 149.363V144.022C1368.38 144.022 1356.7 120.879 1355.03 120.657C1353.36 120.434 1217.64 63.913 1217.64 63.913L1269.37 164.606L1289.84 186.413L1368.38 149.363Z" fill="white" stroke="#36B37E" stroke-width="1.35786" stroke-miterlimit="10"/>
</mask>
<g mask="url(#mask0_1_499)">
<path d="M1311.34 122.611L1294.32 123.168L1286.53 109.371L1270.18 110.15L1277.85 123.613L1261.61 124.169L1269.18 137.854L1285.53 137.52L1302.44 137.075L1310.67 151.317L1328.14 151.206L1336.81 165.892H1355.17L1346.16 150.983L1337.37 136.296L1319.68 136.742L1311.34 122.611Z" fill="#C5E9DA"/>
<path d="M1303.22 108.703L1295.21 95.1294L1278.74 96.0195L1286.53 109.371L1303.22 108.703Z" fill="#36B37E"/>
<path d="M1328.8 121.944L1320.35 107.925L1303.22 108.703L1311.34 122.611L1328.8 121.944Z" fill="#36B37E"/>
<path d="M1337.93 107.146L1329.36 93.2379L1312.12 94.128L1320.35 107.925L1337.93 107.146Z" fill="#36B37E"/>
<path d="M1346.71 121.387L1328.8 121.944L1337.37 136.296L1355.61 135.963L1374.3 135.518L1365.07 120.831L1356.06 106.367L1337.93 107.146L1346.71 121.387Z" fill="#36B37E"/>
<path d="M1254.27 110.817L1270.18 110.15L1262.72 96.7983L1278.74 96.0195L1271.18 82.7792L1255.38 83.7806L1239.92 84.782L1247.04 97.6884L1231.69 98.4672L1216.78 99.2461L1223.56 112.153L1238.69 111.485L1245.81 124.725L1261.61 124.169L1254.27 110.817Z" fill="#172B4D"/>
<path d="M1230.46 125.17L1237.47 138.522L1253.16 138.188L1245.81 124.725L1230.46 125.17Z" fill="#36B37E"/>
<path d="M1218.11 73.2106L1224.79 85.7833L1239.92 84.7819L1232.91 72.098L1218.11 73.2106Z" fill="#36B37E"/>
<path d="M1295.21 95.1294L1312.12 94.128L1304 80.6653L1296.1 67.425L1279.74 68.6489L1263.72 69.8728L1271.18 82.7792L1287.42 81.7779L1295.21 95.1294Z" fill="#36B37E"/>
<path d="M1338.48 78.44L1321.02 79.5526L1329.36 93.2379L1347.16 92.3478L1338.48 78.44Z" fill="#36B37E"/>
<path d="M1374.53 105.588L1365.4 91.3464L1347.16 92.3478L1356.06 106.367L1374.53 105.588Z" fill="#36B37E"/>
<path d="M1253.16 138.188L1260.61 151.985L1276.85 151.762L1269.18 137.854L1253.16 138.188Z" fill="#36B37E"/>
</g>
<path d="M1337.7 145.198L1275.41 158.549L1273.85 162.666L1287.75 181.692L1337.7 145.198Z" fill="#172B4D"/>
<path d="M1373.3 149.426L1434.49 0.222504L1395.11 160.774L1390.88 162.221L1373.3 149.426Z" fill="white" stroke="#36B37E" stroke-width="1.35786" stroke-miterlimit="10"/>
<path d="M1395.44 159.328L1377.2 139.857L1373.3 149.426L1390.88 162.221L1395.11 160.774L1395.44 159.328Z" fill="#36B37E"/>
<path d="M1390.88 162.221L1378.31 151.539L1358.84 136.742L1309.56 156.546L1307.33 168.451L1319.35 185.475L1390.88 162.221Z" fill="white" stroke="#36B37E" stroke-width="1.35786" stroke-miterlimit="10"/>
<path d="M1365.63 170.343L1402 158.549L1381.09 211.065L1351.05 212.956L1365.63 170.343Z" fill="white" stroke="#36B37E" stroke-width="1.35786" stroke-miterlimit="10"/>
<path d="M1326.58 182.915L1319.35 185.475L1316.01 232.984L1319.35 242.997L1351.05 212.956L1365.63 170.343L1326.58 182.915Z" fill="white" stroke="#36B37E" stroke-width="1.35786" stroke-miterlimit="10"/>
<path d="M1423.92 151.539L1486.78 185.475L1326.58 182.916L1423.92 151.539Z" fill="#C5E9DA" stroke="#36B37E" stroke-width="1.35786" stroke-miterlimit="10"/>
<path d="M1319.35 185.475V177.686L1268.95 108.37L1262.28 118.94L1310.45 237.434L1316.01 232.984L1319.35 185.475Z" fill="white" stroke="#36B37E" stroke-width="1.35786" stroke-miterlimit="10"/>
<path d="M1268.95 108.37L1262.28 118.94L1239.81 139.857L1257.61 103.919L1268.95 108.37Z" fill="white" stroke="#36B37E" stroke-width="1.35786" stroke-miterlimit="10"/>
<path d="M1389.1 190.815L1326.58 182.915L1391.88 184.028L1389.1 190.815Z" fill="#172B4D"/>
<path d="M1333.37 180.801L1311.56 162.666L1310.67 165.781L1319.35 177.686V185.475L1333.37 180.801Z" fill="#172B4D"/>
<path d="M1305.78 226.085L1300.66 232.427L1293.98 226.085L1259.16 121.944L1262.28 118.94L1305.78 226.085Z" fill="#C5E9DA" stroke="#36B37E" stroke-width="1.35786" stroke-miterlimit="10"/>
</g>
<g clip-path="url(#clip1_1_499)">
<path d="M-3.57574 314.82L224.862 311.866L136.341 287.513L146.318 266.408L202.935 258.638L188.433 255.275L149.451 253.536L-3.57574 314.82Z" fill="#172B4D"/>
<path d="M122.767 207.034L115.806 207.15L57.9128 185.58L123.347 222.689L134.02 213.876L122.767 207.034Z" fill="#36B37E"/>
<path d="M122.767 207.034L235.42 186.392L179.151 241.011L122.767 207.034Z" fill="#172B4D"/>
<path d="M57.9128 185.58L170.334 249.477L145.042 254.115L83.0886 258.638L57.9128 185.58Z" fill="white" stroke="#36B37E" stroke-width="1.43685" stroke-miterlimit="10" stroke-linejoin="round"/>
<path d="M170.334 249.477L235.42 186.392L188.433 255.275L170.334 249.477Z" fill="white" stroke="#36B37E" stroke-width="1.43685" stroke-miterlimit="10" stroke-linejoin="round"/>
<path d="M123.347 222.689L152.467 198.684L155.484 201.119L146.318 235.793L123.347 222.689Z" fill="white" stroke="#36B37E" stroke-width="1.43685" stroke-miterlimit="10" stroke-linejoin="round"/>
<path d="M155.484 201.119L181.82 238.46L170.334 249.477L146.318 235.793L155.484 201.119Z" fill="white" stroke="#36B37E" stroke-width="1.43685" stroke-miterlimit="10" stroke-linejoin="round"/>
<path d="M188.433 255.275L145.042 254.115L170.334 249.477L188.433 255.275Z" fill="white" stroke="#36B37E" stroke-width="1.43685" stroke-miterlimit="10" stroke-linejoin="round"/>
<path d="M38.5379 237.416L29.2565 239.04L-52.4199 222.573L42.7146 258.058L55.1284 244.026L38.5379 237.416Z" fill="white" stroke="#36B37E" stroke-width="1.43685" stroke-miterlimit="10" stroke-linejoin="round"/>
<path d="M38.5379 237.416L184.256 186.392L120.794 270.467L38.5379 237.416Z" fill="#C5E9DA" stroke="#36B37E" stroke-width="1.43685" stroke-miterlimit="10"/>
<path d="M-52.4199 222.573L111.049 283.455L78.216 295.051L-3.46047 313.953L-52.4199 222.573Z" fill="white" stroke="#36B37E" stroke-width="1.43685" stroke-miterlimit="10" stroke-linejoin="round"/>
<path d="M111.049 283.455L184.256 186.392L136.341 287.513L111.049 283.455Z" fill="white" stroke="#36B37E" stroke-width="1.43685" stroke-miterlimit="10" stroke-linejoin="round"/>
<path d="M42.7146 258.058L76.4757 220.138L81.0004 222.573L76.1277 270.467L42.7146 258.058Z" fill="#36B37E"/>
<path d="M81.0004 222.573L123.811 266.524L111.049 283.455L76.1277 270.466L81.0004 222.573Z" fill="white" stroke="#36B37E" stroke-width="1.43685" stroke-miterlimit="10" stroke-linejoin="round"/>
<path d="M136.341 287.513L78.2159 295.051L111.049 283.455L136.341 287.513Z" fill="white" stroke="#36B37E" stroke-width="1.43685" stroke-miterlimit="10" stroke-linejoin="round"/>
<mask id="mask1_1_499" style="mask-type:alpha" maskUnits="userSpaceOnUse" x="-54" y="222" width="166" height="92">
<path d="M-52.6226 223.005L110.742 283.211L78.3906 294.354L-3.28582 313.256L-52.6226 223.005Z" fill="white" stroke="#36B37E" stroke-width="1.43685" stroke-miterlimit="10" stroke-linejoin="round"/>
</mask>
<g mask="url(#mask1_1_499)">
<path d="M45.7312 285.889L27.9805 286.469L19.7433 272.206L2.68868 272.901L10.6939 287.049L-6.12866 287.513L1.64452 301.777L18.8151 301.429L36.3338 300.965L44.9191 315.924L63.2499 315.692L72.2993 331H91.3262L82.0447 315.46L72.8793 300.269L54.3165 300.617L45.7312 285.889Z" fill="#C5E9DA"/>
<path d="M37.1459 271.394L28.7926 257.246L11.622 258.174L19.7432 272.205L37.1459 271.394Z" fill="#C5E9DA"/>
<path d="M63.83 285.31L55.1286 270.582L37.1459 271.394L45.7312 285.889L63.83 285.31Z" fill="#36B37E"/>
<path d="M73.4594 269.886L64.5261 255.275L46.4273 256.318L55.1286 270.582L73.4594 269.886Z" fill="#172B4D"/>
<path d="M82.5089 284.614L63.83 285.31L72.8794 300.269L91.7903 299.805L111.281 299.341L101.652 284.034L92.2543 269.074L73.4595 269.886L82.5089 284.614Z" fill="#36B37E"/>
<path d="M-13.9019 273.597L2.6886 272.901L-5.08458 259.101L11.622 258.174L3.73276 244.374L-12.7417 245.418L-28.8682 246.461L-21.4431 259.913L-37.3375 260.841L-52.9999 261.653L-45.9228 274.989L-30.0284 274.293L-22.6032 288.093L-6.12874 287.513L-13.9019 273.597Z" fill="#36B37E"/>
<path d="M28.7926 257.246L46.4273 256.318L37.958 242.286L29.7207 228.487L12.6661 229.762L-4.04041 230.922L3.73278 244.374L20.6714 243.33L28.7926 257.246Z" fill="#36B37E"/>
<path d="M74.0395 239.967L55.8247 241.127L64.526 255.275L83.0889 254.347L74.0395 239.967Z" fill="#36B37E"/>
<path d="M111.629 268.147L102 253.303L83.0887 254.347L92.2541 269.074L111.629 268.147Z" fill="#36B37E"/>
<path d="M-15.0621 302.124L-7.28889 316.504L9.6497 316.272L1.64447 301.777L-15.0621 302.124Z" fill="#36B37E"/>
</g>
</g>
<defs>
<clipPath id="clip0_1_499">
<rect width="273" height="245" fill="white" transform="matrix(-1 0 0 1 1489 0)"/>
</clipPath>
<clipPath id="clip1_1_499">
<rect width="289" height="146" fill="white" transform="translate(-53 185)"/>
</clipPath>
</defs>
</svg>
