<svg width="461" height="390" viewBox="0 0 461 390" fill="none" xmlns="http://www.w3.org/2000/svg">
<g clip-path="url(#clip0_3_26)">
<path d="M472.368 93.9786L519.525 108.944H451.866L443.192 108.06L438.986 105.607L453.338 93.9786H472.368Z" fill="#172B4D"/>
<path d="M466.165 66.5021V64.1469C466.165 64.1469 460.645 53.9414 459.856 53.8432C459.068 53.7451 394.931 28.82 394.931 28.82L419.377 73.224L429.05 82.8408L466.165 66.5021Z" fill="white" stroke="#36B37E" stroke-width="0.598795" stroke-miterlimit="10"/>
<mask id="mask0_3_26" style="mask-type:alpha" maskUnits="userSpaceOnUse" x="394" y="28" width="73" height="56">
<path d="M466.361 66.7686V64.4135C466.361 64.4135 460.841 54.2079 460.053 54.1098C459.264 54.0117 395.127 29.0866 395.127 29.0866L419.573 73.4906L429.246 83.1073L466.361 66.7686Z" fill="white" stroke="#36B37E" stroke-width="0.598795" stroke-miterlimit="10"/>
</mask>
<g mask="url(#mask0_3_26)">
<path d="M439.406 54.9724L431.363 55.2177L427.683 49.1336L419.955 49.4771L423.582 55.4139L415.907 55.6593L419.482 61.6943L427.21 61.5471L435.201 61.3508L439.091 67.6312L447.344 67.5821L451.445 74.0587H460.119L455.861 67.484L451.708 61.0074L443.349 61.2036L439.406 54.9724Z" fill="#C5E9DA"/>
<path d="M435.568 48.8389L431.783 42.853L424.003 43.2455L427.683 49.1333L435.568 48.8389Z" fill="#36B37E"/>
<path d="M447.66 54.678L443.665 48.4958L435.569 48.8392L439.406 54.9724L447.66 54.678Z" fill="#36B37E"/>
<path d="M451.97 48.152L447.923 42.0188L439.774 42.4113L443.664 48.4954L451.97 48.152Z" fill="#36B37E"/>
<path d="M456.124 54.4323L447.66 54.6776L451.708 61.007L460.329 60.8598L469.161 60.6636L464.798 54.1869L460.54 47.8085L451.971 48.1519L456.124 54.4323Z" fill="#36B37E"/>
<path d="M412.437 49.7714L419.955 49.477L416.433 43.5892L424.003 43.2458L420.428 37.407L412.963 37.8486L405.656 38.2902L409.02 43.9817L401.765 44.3252L394.721 44.6687L397.928 50.3602L405.077 50.0658L408.442 55.9046L415.907 55.6593L412.437 49.7714Z" fill="#172B4D"/>
<path d="M401.187 56.1006L404.499 61.9884L411.912 61.8412L408.442 55.9043L401.187 56.1006Z" fill="#36B37E"/>
<path d="M395.352 33.1872L398.506 38.7316L405.656 38.29L402.344 32.6966L395.352 33.1872Z" fill="#36B37E"/>
<path d="M431.783 42.8531L439.774 42.4115L435.936 36.4746L432.204 30.6359L424.476 31.1756L416.906 31.7153L420.428 37.4069L428.103 36.9653L431.783 42.8531Z" fill="#36B37E"/>
<path d="M452.234 35.4932L443.98 35.9838L447.923 42.0189L456.334 41.6263L452.234 35.4932Z" fill="#36B37E"/>
<path d="M469.266 47.4654L464.956 41.1851L456.334 41.6267L460.54 47.8089L469.266 47.4654Z" fill="#36B37E"/>
<path d="M411.912 61.8412L415.434 67.9253L423.109 67.8271L419.482 61.694L411.912 61.8412Z" fill="#36B37E"/>
</g>
<path d="M451.866 64.9318L422.426 70.8196L421.69 72.635L428.262 81.0251L451.866 64.9318Z" fill="#172B4D"/>
<path d="M476.995 72.4391L471.054 67.7288L461.854 61.2032L438.565 69.9368L437.514 75.1867L443.192 82.6937L476.995 72.4391Z" fill="white" stroke="#36B37E" stroke-width="0.598795" stroke-miterlimit="10"/>
<path d="M465.061 76.0205L482.252 70.8196L472.368 93.9783L458.174 94.8124L465.061 76.0205Z" fill="white" stroke="#36B37E" stroke-width="0.598795" stroke-miterlimit="10"/>
<path d="M446.609 81.5649L443.192 82.6934L441.614 103.644L443.192 108.06L458.174 94.8125L465.061 76.0206L446.609 81.5649Z" fill="white" stroke="#36B37E" stroke-width="0.598795" stroke-miterlimit="10"/>
<path d="M492.608 67.7288L522.311 82.6937L446.609 81.5652L492.608 67.7288Z" fill="#C5E9DA" stroke="#36B37E" stroke-width="0.598795" stroke-miterlimit="10"/>
<path d="M443.192 82.6936V79.2591L419.377 48.6915L416.223 53.3527L438.986 105.607L441.614 103.644L443.192 82.6936Z" fill="white" stroke="#36B37E" stroke-width="0.598795" stroke-miterlimit="10"/>
<path d="M419.377 48.6912L416.223 53.3524L405.603 62.5766L414.015 46.7286L419.377 48.6912Z" fill="white" stroke="#36B37E" stroke-width="0.598795" stroke-miterlimit="10"/>
<path d="M476.154 85.0488L446.609 81.5652L477.468 82.0558L476.154 85.0488Z" fill="#172B4D"/>
<path d="M449.815 80.6328L439.512 72.6352L439.091 74.009L443.192 79.259V82.6936L449.815 80.6328Z" fill="#172B4D"/>
<path d="M436.778 100.602L434.36 103.399L431.206 100.602L414.751 54.6772L416.223 53.3524L436.778 100.602Z" fill="#C5E9DA" stroke="#36B37E" stroke-width="0.598795" stroke-miterlimit="10"/>
</g>
<g clip-path="url(#clip1_3_26)">
<path d="M-33.6441 382.248L74.3067 380.945L32.475 370.206L37.19 360.899L63.9447 357.472L57.0916 355.989L38.6702 355.222L-33.6441 382.248Z" fill="#172B4D"/>
<path d="M26.0602 334.716L22.7707 334.767L-4.58716 325.255L26.3343 341.619L31.3783 337.733L26.0602 334.716Z" fill="#36B37E"/>
<path d="M26.0605 334.715L79.296 325.612L52.7057 349.699L26.0605 334.715Z" fill="#172B4D"/>
<path d="M-4.58716 325.255L48.5386 353.432L36.5867 355.478L7.30995 357.472L-4.58716 325.255Z" fill="white" stroke="#36B37E" stroke-width="0.633632" stroke-miterlimit="10" stroke-linejoin="round"/>
<path d="M48.5388 353.432L79.2958 325.612L57.0915 355.989L48.5388 353.432Z" fill="white" stroke="#36B37E" stroke-width="0.633632" stroke-miterlimit="10" stroke-linejoin="round"/>
<path d="M26.3346 341.619L40.0958 331.033L41.5213 332.107L37.1901 347.398L26.3346 341.619Z" fill="white" stroke="#36B37E" stroke-width="0.633632" stroke-miterlimit="10" stroke-linejoin="round"/>
<path d="M41.5211 332.107L53.9665 348.574L48.5388 353.432L37.1899 347.397L41.5211 332.107Z" fill="white" stroke="#36B37E" stroke-width="0.633632" stroke-miterlimit="10" stroke-linejoin="round"/>
<path d="M57.0917 355.989L36.587 355.477L48.5389 353.432L57.0917 355.989Z" fill="white" stroke="#36B37E" stroke-width="0.633632" stroke-miterlimit="10" stroke-linejoin="round"/>
<path d="M-13.7428 348.114L55.1178 325.613L25.1284 362.688L-13.7428 348.114Z" fill="#C5E9DA" stroke="#36B37E" stroke-width="0.633632" stroke-miterlimit="10"/>
<path d="M-56.726 341.568L20.523 368.416L5.00738 373.53L-33.5897 381.865L-56.726 341.568Z" fill="white" stroke="#36B37E" stroke-width="0.633632" stroke-miterlimit="10" stroke-linejoin="round"/>
<path d="M20.5229 368.416L55.1177 325.613L32.4748 370.206L20.5229 368.416Z" fill="white" stroke="#36B37E" stroke-width="0.633632" stroke-miterlimit="10" stroke-linejoin="round"/>
<path d="M-11.7693 357.217L4.18488 340.494L6.32307 341.568L4.02041 362.689L-11.7693 357.217Z" fill="#36B37E"/>
<path d="M6.32308 341.568L26.5536 360.95L20.5228 368.416L4.02042 362.688L6.32308 341.568Z" fill="white" stroke="#36B37E" stroke-width="0.633632" stroke-miterlimit="10" stroke-linejoin="round"/>
<path d="M32.4748 370.206L5.00729 373.53L20.5229 368.416L32.4748 370.206Z" fill="white" stroke="#36B37E" stroke-width="0.633632" stroke-miterlimit="10" stroke-linejoin="round"/>
<mask id="mask1_3_26" style="mask-type:alpha" maskUnits="userSpaceOnUse" x="-58" y="341" width="79" height="41">
<path d="M-56.8216 341.759L20.3778 368.309L5.09 373.223L-33.5071 381.558L-56.8216 341.759Z" fill="white" stroke="#36B37E" stroke-width="0.633632" stroke-miterlimit="10" stroke-linejoin="round"/>
</mask>
<g mask="url(#mask1_3_26)">
<path d="M-10.3437 369.49L-18.732 369.746L-22.6246 363.456L-30.6839 363.762L-26.901 370.001L-34.8506 370.206L-31.1773 376.496L-23.0632 376.343L-14.7846 376.138L-10.7275 382.735L-2.06507 382.633L2.21131 389.383H11.2027L6.81664 382.53L2.48543 375.831L-6.28662 375.985L-10.3437 369.49Z" fill="#C5E9DA"/>
<path d="M2.75963 362.433L-1.46192 355.989L-10.0147 356.45L-5.90278 362.74L2.75963 362.433Z" fill="#172B4D"/>
<path d="M7.0361 368.927L-1.79079 369.234L2.48559 375.831L11.4221 375.627L20.6328 375.422L16.0823 368.672L11.6414 362.075L2.75972 362.433L7.0361 368.927Z" fill="#36B37E"/>
<path d="M3.03377 349.239L-5.57381 349.75L-1.46191 355.989L7.31015 355.58L3.03377 349.239Z" fill="#36B37E"/>
<path d="M20.7972 361.666L16.2467 355.12L7.31015 355.58L11.6413 362.075L20.7972 361.666Z" fill="#36B37E"/>
</g>
</g>
<defs>
<clipPath id="clip0_3_26">
<rect width="129.009" height="108.042" fill="white" transform="matrix(-1 0 0 1 461 0)"/>
</clipPath>
<clipPath id="clip1_3_26">
<rect width="136.57" height="64.3839" fill="white" transform="translate(-57 325)"/>
</clipPath>
</defs>
</svg>
