<svg width="375" height="390" viewBox="0 0 375 390" fill="none" xmlns="http://www.w3.org/2000/svg">
<g clip-path="url(#clip0_8_89)">
<mask id="mask0_8_89" style="mask-type:alpha" maskUnits="userSpaceOnUse" x="307" y="-13" width="68" height="127">
<rect x="307" y="-13" width="68" height="127" fill="#C4C4C4"/>
</mask>
<g mask="url(#mask0_8_89)">
<path d="M378.803 93.0773L422.808 108.042H359.67L351.575 107.159L347.651 104.706L361.044 93.0773H378.803Z" fill="#172B4D"/>
<path d="M373.014 65.6007V63.2456C373.014 63.2456 367.863 53.04 367.127 52.9419C366.391 52.8437 306.54 27.9186 306.54 27.9186L329.352 72.3226L338.379 81.9394L373.014 65.6007Z" fill="white" stroke="#1E488F" stroke-width="0.598795" stroke-miterlimit="10"/>
<mask id="mask1_8_89" style="mask-type:alpha" maskUnits="userSpaceOnUse" x="306" y="27" width="68" height="56">
<path d="M373.197 65.8672V63.5121C373.197 63.5121 368.046 53.3065 367.31 53.2084C366.574 53.1103 306.723 28.1852 306.723 28.1852L329.535 72.5892L338.562 82.2059L373.197 65.8672Z" fill="white" stroke="#36B37E" stroke-width="0.598795" stroke-miterlimit="10"/>
</mask>
<g mask="url(#mask1_8_89)">
<path d="M348.043 54.071L340.537 54.3163L337.103 48.2322L329.891 48.5757L333.276 54.5126L326.114 54.7579L329.45 60.7929L336.661 60.6457L344.118 60.4495L347.749 66.7298L355.451 66.6807L359.277 73.1573H367.372L363.398 66.5826L359.522 60.106L351.722 60.3023L348.043 54.071Z" fill="#E2EDFF"/>
<path d="M344.461 47.9375L340.929 41.9516L333.669 42.3441L337.103 48.2319L344.461 47.9375Z" fill="#1E488F"/>
<path d="M355.745 53.7766L352.017 47.5944L344.462 47.9379L348.043 54.071L355.745 53.7766Z" fill="#1E488F"/>
<path d="M359.768 47.2506L355.99 41.1174L348.386 41.51L352.016 47.594L359.768 47.2506Z" fill="#1E488F"/>
<path d="M363.643 53.5309L355.745 53.7762L359.522 60.1056L367.568 59.9584L375.81 59.7622L371.738 53.2856L367.764 46.9071L359.768 47.2506L363.643 53.5309Z" fill="#1E488F"/>
<path d="M322.876 48.87L329.891 48.5756L326.604 42.6878L333.669 42.3444L330.333 36.5056L323.366 36.9472L316.547 37.3888L319.687 43.0803L312.917 43.4238L306.343 43.7673L309.336 49.4588L316.008 49.1644L319.147 55.0032L326.114 54.7579L322.876 48.87Z" fill="#172B4D"/>
<path d="M312.377 55.1991L315.468 61.0869L322.385 60.9398L319.147 55.0029L312.377 55.1991Z" fill="#1E488F"/>
<path d="M306.932 32.2858L309.875 37.8302L316.547 37.3886L313.457 31.7952L306.932 32.2858Z" fill="#1E488F"/>
<path d="M340.929 41.9517L348.386 41.5101L344.805 35.5733L341.322 29.7345L334.11 30.2742L327.046 30.8139L330.333 36.5055L337.495 36.0639L340.929 41.9517Z" fill="#1E488F"/>
<path d="M360.013 34.5918L352.311 35.0824L355.99 41.1175L363.84 40.7249L360.013 34.5918Z" fill="#1E488F"/>
<path d="M375.908 46.564L371.885 40.2837L363.84 40.7253L367.764 46.9075L375.908 46.564Z" fill="#1E488F"/>
<path d="M322.385 60.9397L325.672 67.0238L332.835 66.9257L329.45 60.7925L322.385 60.9397Z" fill="#1E488F"/>
</g>
<path d="M359.67 64.0304L332.198 69.9182L331.511 71.7336L337.643 80.1238L359.67 64.0304Z" fill="#172B4D"/>
<path d="M383.12 71.5377L377.576 66.8275L368.991 60.3018L347.258 69.0354L346.277 74.2854L351.575 81.7924L383.12 71.5377Z" fill="white" stroke="#1E488F" stroke-width="0.598795" stroke-miterlimit="10"/>
<path d="M371.984 75.1191L388.026 69.9182L378.803 93.077L365.557 93.9111L371.984 75.1191Z" fill="white" stroke="#1E488F" stroke-width="0.598795" stroke-miterlimit="10"/>
<path d="M354.764 80.6636L351.575 81.7921L350.104 102.743L351.575 107.159L365.557 93.9112L371.984 75.1192L354.764 80.6636Z" fill="white" stroke="#1E488F" stroke-width="0.598795" stroke-miterlimit="10"/>
<path d="M397.69 66.8275L425.408 81.7923L354.764 80.6638L397.69 66.8275Z" fill="#E2EDFF" stroke="#1E488F" stroke-width="0.598795" stroke-miterlimit="10"/>
<path d="M351.575 81.7923V78.3577L329.352 47.7901L326.409 52.4513L347.651 104.706L350.104 102.743L351.575 81.7923Z" fill="white" stroke="#1E488F" stroke-width="0.598795" stroke-miterlimit="10"/>
<path d="M329.352 47.7898L326.408 52.451L316.499 61.6753L324.348 45.8272L329.352 47.7898Z" fill="white" stroke="#1E488F" stroke-width="0.598795" stroke-miterlimit="10"/>
<path d="M382.335 84.1474L354.764 80.6638L383.562 81.1545L382.335 84.1474Z" fill="#172B4D"/>
<path d="M357.757 79.7314L348.141 71.7338L347.749 73.1077L351.575 78.3576V81.7922L357.757 79.7314Z" fill="#172B4D"/>
<path d="M345.59 99.7008L343.334 102.498L340.39 99.7008L325.035 53.7758L326.409 52.451L345.59 99.7008Z" fill="#E2EDFF" stroke="#1E488F" stroke-width="0.598795" stroke-miterlimit="10"/>
</g>
</g>
<g clip-path="url(#clip1_8_89)">
<path d="M-35.2046 382.248L65.5333 380.945L26.4966 370.206L30.8966 360.899L55.8637 357.472L49.4684 355.989L32.2779 355.222L-35.2046 382.248Z" fill="#172B4D"/>
<path d="M20.5105 334.716L17.4408 334.767L-8.08911 325.255L20.7663 341.619L25.4732 337.733L20.5105 334.716Z" fill="#1E488F"/>
<path d="M20.5107 334.715L70.1892 325.612L45.3755 349.699L20.5107 334.715Z" fill="#172B4D"/>
<path d="M-8.08911 325.255L41.487 353.432L30.3337 355.478L3.01308 357.472L-8.08911 325.255Z" fill="white" stroke="#1E488F" stroke-width="0.633632" stroke-miterlimit="10" stroke-linejoin="round"/>
<path d="M41.4871 353.432L70.189 325.612L49.4684 355.989L41.4871 353.432Z" fill="white" stroke="#1E488F" stroke-width="0.633632" stroke-miterlimit="10" stroke-linejoin="round"/>
<path d="M20.7666 341.619L33.6083 331.033L34.9385 332.107L30.8967 347.398L20.7666 341.619Z" fill="white" stroke="#1E488F" stroke-width="0.633632" stroke-miterlimit="10" stroke-linejoin="round"/>
<path d="M34.9383 332.107L46.5521 348.574L41.4871 353.432L30.8965 347.397L34.9383 332.107Z" fill="white" stroke="#1E488F" stroke-width="0.633632" stroke-miterlimit="10" stroke-linejoin="round"/>
<path d="M49.4686 355.989L30.334 355.477L41.4873 353.432L49.4686 355.989Z" fill="white" stroke="#1E488F" stroke-width="0.633632" stroke-miterlimit="10" stroke-linejoin="round"/>
<path d="M-16.6331 348.114L47.6266 325.613L19.6409 362.688L-16.6331 348.114Z" fill="#E2EDFF" stroke="#1E488F" stroke-width="0.633632" stroke-miterlimit="10"/>
<path d="M-56.7441 341.568L15.3433 368.416L0.864423 373.53L-35.1537 381.865L-56.7441 341.568Z" fill="white" stroke="#1E488F" stroke-width="0.633632" stroke-miterlimit="10" stroke-linejoin="round"/>
<path d="M15.3433 368.416L47.6266 325.613L26.4966 370.206L15.3433 368.416Z" fill="white" stroke="#1E488F" stroke-width="0.633632" stroke-miterlimit="10" stroke-linejoin="round"/>
<path d="M-14.7914 357.217L0.0968006 340.494L2.09212 341.568L-0.0566835 362.689L-14.7914 357.217Z" fill="#1E488F"/>
<path d="M2.09217 341.568L20.971 360.95L15.3432 368.416L-0.0566406 362.688L2.09217 341.568Z" fill="white" stroke="#1E488F" stroke-width="0.633632" stroke-miterlimit="10" stroke-linejoin="round"/>
<path d="M26.4965 370.206L0.864258 373.53L15.3431 368.416L26.4965 370.206Z" fill="white" stroke="#1E488F" stroke-width="0.633632" stroke-miterlimit="10" stroke-linejoin="round"/>
<mask id="mask2_8_89" style="mask-type:alpha" maskUnits="userSpaceOnUse" x="-58" y="341" width="74" height="41">
<path d="M-56.8335 341.759L15.2078 368.309L0.941438 373.223L-35.0767 381.558L-56.8335 341.759Z" fill="white" stroke="#36B37E" stroke-width="0.633632" stroke-miterlimit="10" stroke-linejoin="round"/>
</mask>
<g mask="url(#mask2_8_89)">
<path d="M-13.4611 369.49L-21.2889 369.746L-24.9214 363.456L-32.4422 363.762L-28.9121 370.001L-36.3306 370.206L-32.9027 376.496L-25.3307 376.343L-17.6052 376.138L-13.8192 382.735L-5.73562 382.633L-1.74497 389.383H6.64562L2.55265 382.53L-1.48916 375.831L-9.6751 375.985L-13.4611 369.49Z" fill="#E2EDFF"/>
<path d="M2.75749 368.927L-5.47961 369.234L-1.48897 375.831L6.85046 375.627L15.4457 375.422L11.1992 368.672L7.05511 362.075L-1.23316 362.433L2.75749 368.927Z" fill="#1E488F"/>
<path d="M-0.977436 349.239L-9.00989 349.75L-5.17273 355.989L3.01321 355.58L-0.977436 349.239Z" fill="#1E488F"/>
<path d="M15.5992 361.666L11.3527 355.12L3.01331 355.58L7.05511 362.075L15.5992 361.666Z" fill="#1E488F"/>
</g>
</g>
<defs>
<clipPath id="clip0_8_89">
<rect width="120.389" height="108.042" fill="white" transform="matrix(-1 0 0 1 426.389 0)"/>
</clipPath>
<clipPath id="clip1_8_89">
<rect width="127.445" height="64.3839" fill="white" transform="translate(-57 325)"/>
</clipPath>
</defs>
</svg>
