<svg width="1440" height="497" viewBox="0 0 1440 497" fill="none" xmlns="http://www.w3.org/2000/svg">
<g clip-path="url(#clip0_1_590)">
<path d="M308.165 336.843L291.146 382.929L310.986 396.127L368.573 368.775L386.237 345.003L343.731 331.713L308.165 336.843Z" fill="white" stroke="#36B37E" stroke-width="1.63467" stroke-miterlimit="10" stroke-linejoin="round"/>
<path d="M328.19 355.382L330.083 359.368L368.573 368.775L371.205 365.173L386.237 345.003L343.731 331.713L328.19 355.382Z" fill="#C5E9DA" stroke="#36B37E" stroke-width="1.63467" stroke-miterlimit="10" stroke-linejoin="round"/>
<path d="M343.731 331.713L330.342 353.816L291.146 382.929" fill="white"/>
<path d="M343.731 331.713L330.342 353.816L291.146 382.929" stroke="#36B37E" stroke-width="1.63467" stroke-miterlimit="10" stroke-linejoin="round"/>
<path d="M323.217 359.01L325.041 348.372L335.185 345.725L330.083 359.368L323.217 359.01Z" fill="#172B4D" stroke="#36B37E" stroke-width="1.63467" stroke-miterlimit="10" stroke-linejoin="round"/>
<path d="M368.573 368.775L330.083 359.368" stroke="#36B37E" stroke-width="1.63467" stroke-miterlimit="10" stroke-linejoin="round"/>
<path d="M355.258 365.508L361.947 360.159L361.224 367.018L356.104 370.717L355.258 365.508Z" fill="white" stroke="#36B37E" stroke-width="1.63467" stroke-miterlimit="10" stroke-linejoin="round"/>
<path d="M361.947 360.159L360.298 336.874" stroke="#36B37E" stroke-width="1.63467" stroke-miterlimit="10" stroke-linejoin="round"/>
<path d="M304.531 401.423L308.542 393.078C308.644 392.867 308.817 392.698 309.03 392.601L369.722 365.067C370.017 364.933 370.358 364.951 370.638 365.114L400.959 382.795C401.73 383.244 401.571 384.402 400.708 384.627L323.934 404.634C323.819 404.664 323.701 404.673 323.583 404.662L305.333 402.851C304.643 402.783 304.23 402.049 304.531 401.423Z" fill="#172B4D"/>
<mask id="mask0_1_590" style="mask-type:alpha" maskUnits="userSpaceOnUse" x="290" y="358" width="80" height="39">
<path d="M291.146 382.929L323.217 359.01L334.524 360.336L368.573 368.775L364.439 370.739L310.986 396.127L291.146 382.929Z" fill="white" stroke="#36B37E" stroke-width="1.63467" stroke-miterlimit="10" stroke-linejoin="round"/>
</mask>
<g mask="url(#mask0_1_590)">
<path d="M324.141 370.535L328.534 361.209L338.322 360.859L342.433 351.893L333.103 352.252L337.399 343.199L327.796 343.461L323.5 352.515L318.834 361.744L308.775 361.997L304.012 371.499L293.583 371.927L288.355 381.876L298.968 381.36L309.309 380.746L314.169 370.973L324.141 370.535Z" fill="#36B37E"/>
<path d="M333.928 370.184L343.628 369.649L347.652 360.499L338.322 360.858L333.928 370.184Z" fill="#36B37E"/>
<path d="M319.466 380.221L329.535 379.51L333.928 370.184L324.141 370.535L319.466 380.221Z" fill="#C5E9DA"/>
<path d="M324.86 389.196L334.744 388.573L339.235 378.975L329.535 379.51L324.86 389.196Z" fill="#36B37E"/>
<path d="M314.791 389.906L319.466 380.22L309.309 380.746L304.45 390.52L299.396 400.838L309.835 399.952L320.176 399.339L324.86 389.196L314.791 389.906Z" fill="#36B37E"/>
<path d="M346.633 343.111L342.434 351.893L351.764 351.533L347.652 360.499L356.983 360.139L360.91 351.261L364.741 342.655L355.779 342.839L359.697 334.418L363.431 326.084L354.654 326.181L350.736 334.602L341.502 334.69L337.399 343.199L346.633 343.111Z" fill="#36B37E"/>
<path d="M343.628 369.65L339.235 378.976L348.75 378.528L358.177 377.896L362.202 368.746L366.129 359.868L356.983 360.14L352.959 369.29L343.628 369.65Z" fill="#36B37E"/>
<path d="M340.226 397.733L344.629 387.951L334.744 388.573L330.342 398.356L340.226 397.733Z" fill="#36B37E"/>
<path d="M315.492 409.481L325.658 408.499L330.342 398.356L320.176 399.339L315.492 409.481Z" fill="#36B37E"/>
</g>
</g>
<g clip-path="url(#clip1_1_590)">
<path d="M1317.28 489.707L1498.94 460.478L1599.49 444.299L1543.27 385.507L1278.94 428.039L1287.27 455.576L1317.28 489.707Z" fill="#172B4D"/>
<path d="M1480.62 8.95469L1534.68 41.5088L1384.47 465.605L1317.28 489.708L1287.27 455.577L1278.94 428.039L1377.52 185.972L1401.46 163.785L1391.81 140.816L1436.16 27.5669L1480.62 8.95469Z" fill="white"/>
<mask id="mask1_1_590" style="mask-type:alpha" maskUnits="userSpaceOnUse" x="1278" y="8" width="257" height="482">
<path d="M1480.62 8.95469L1534.68 41.5088L1384.47 465.605L1317.28 489.708L1287.27 455.577L1278.94 428.039L1377.52 185.972L1401.46 163.785L1391.81 140.816L1436.16 27.5669L1480.62 8.95469Z" fill="white"/>
</mask>
<g mask="url(#mask1_1_590)">
<path d="M1369.77 228.932L1377.26 207.1L1398.3 203.944L1405.45 182.854L1384.63 185.974L1391.85 165.331L1371 168.228L1363.37 189.166L1355.58 210.587L1333.65 213.887L1325.3 236.086L1302.55 239.977L1293.67 263.177L1316.84 258.991L1339.59 255.101L1347.65 232.491L1369.77 228.932Z" fill="#C5E9DA"/>
<path d="M1391.18 225.257L1412.18 221.877L1419.08 200.6L1398.3 203.944L1391.18 225.257Z" fill="#36B37E"/>
<path d="M1361.87 251.059L1383.73 247.312L1391.18 225.257L1369.77 228.932L1361.87 251.059Z" fill="#36B37E"/>
<path d="M1376.12 269.85L1397.95 265.88L1405.14 243.637L1383.73 247.312L1376.12 269.85Z" fill="#172B4D"/>
<path d="M1353.88 274.115L1361.87 251.059L1339.59 255.101L1331.17 278.229L1322.62 302.064L1345.72 297.431L1368.4 293.094L1376.12 269.85L1353.88 274.115Z" fill="#172B4D"/>
<path d="M1412.26 162.507L1405.45 182.854L1425.82 179.806L1419.08 200.6L1439.45 197.552L1446 177.017L1452.18 157.001L1432.44 159.718L1438.88 139.889L1445.2 120.766L1425.62 123L1419.11 142.382L1398.93 145.171L1391.85 165.331L1412.26 162.507Z" fill="#36B37E"/>
<path d="M1405.59 125.307L1385.37 127.872L1378.26 147.809L1398.93 145.171L1405.59 125.307Z" fill="#172B4D"/>
<path d="M1412.18 221.877L1405.14 243.637L1426.11 240.034L1446.59 236.28L1453.04 215.074L1459.33 194.352L1439.45 197.552L1432.96 218.534L1412.18 221.877Z" fill="#36B37E"/>
<path d="M1412.2 284.671L1419.33 261.981L1397.95 265.88L1390.41 288.864L1412.2 284.671Z" fill="#36B37E"/>
<path d="M1360.3 316.857L1382.73 312.332L1390.41 288.864L1368.4 293.094L1360.3 316.857Z" fill="#36B37E"/>
<path d="M1378.26 147.809L1357.37 150.482L1349.67 170.974L1371 168.228L1378.26 147.809Z" fill="#36B37E"/>
</g>
<path d="M1480.62 8.95469L1317.28 489.708L1384.47 465.605L1534.68 41.5088L1480.62 8.95469Z" fill="#C5E9DA"/>
<path d="M1480.62 8.95469L1534.68 41.5088L1384.47 465.605L1317.28 489.708L1287.27 455.577L1278.94 428.039L1377.52 185.972L1401.46 163.785L1391.81 140.816L1436.16 27.5669L1480.62 8.95469Z" stroke="#36B37E" stroke-width="1.57158" stroke-miterlimit="10" stroke-linejoin="round"/>
<path d="M1422.39 179.898L1443.32 196.011L1415.39 200.505L1422.39 179.898Z" fill="white"/>
<path d="M1480.16 195.584L1443.32 196.011L1422.39 179.898L1401.46 163.785" stroke="#36B37E" stroke-width="1.57158" stroke-miterlimit="10" stroke-linejoin="round"/>
<path d="M1443.32 196.011L1415.39 200.505L1387.28 283.639" stroke="#36B37E" stroke-width="1.57158" stroke-miterlimit="10" stroke-linejoin="round"/>
<path d="M1515.59 95.2305L1469.12 42.8913L1425.44 54.9607" stroke="#36B37E" stroke-width="1.57158" stroke-miterlimit="10" stroke-linejoin="round"/>
<path d="M1438.37 51.2759L1429.18 45.4214" stroke="#36B37E" stroke-width="1.57158" stroke-miterlimit="10" stroke-linejoin="round"/>
<path d="M1380.28 304.246L1344.02 268.369L1278.94 428.039L1287.27 455.577L1317.28 489.708L1380.28 304.246Z" fill="white" stroke="#36B37E" stroke-width="1.57158" stroke-miterlimit="10" stroke-linejoin="round"/>
<path d="M1435.34 324.492L1376.08 316.61L1371.33 295.603L1382.46 300.687L1435.34 324.492Z" fill="#172B4D"/>
</g>
<g clip-path="url(#clip2_1_590)">
<path d="M118.599 386.792L20.9609 391.078C20.6 391.078 20.0582 391.26 19.6964 391.621L-12.8637 424.148C-13.2255 424.51 -13.4073 425.051 -13.409 425.773L-12.0396 456.81C-12.0422 457.893 -11.1421 458.794 -9.87844 458.612L73.8756 449.473C74.4175 449.291 74.9592 449.11 75.321 448.749L93.4325 421.294L93.6133 421.114L120.395 390.038C121.301 388.773 120.223 386.609 118.599 386.792Z" fill="#172B4D"/>
<path d="M79.1709 215.281L-30.771 223.937L-59.2615 267.881L-31.8518 383.44L0.593814 408.636L64.3491 403.633L75.942 370.449L108.733 334.451L79.1709 215.281Z" fill="white" stroke="#36B37E" stroke-width="1.55764" stroke-miterlimit="10" stroke-linejoin="round"/>
<path d="M75.9419 370.449L17.8667 267.162L79.1708 215.281L108.733 334.45L75.9419 370.449Z" fill="#C5E9DA" stroke="#36B37E" stroke-width="1.55764" stroke-miterlimit="10" stroke-linejoin="round"/>
<path d="M64.3491 403.633L49.5946 323.319L75.942 370.449L64.3491 403.633Z" fill="white" stroke="#36B37E" stroke-width="1.55764" stroke-miterlimit="10" stroke-linejoin="round"/>
<path d="M-59.2614 267.882L17.8669 267.162" stroke="#36B37E" stroke-width="1.55764" stroke-miterlimit="10" stroke-linejoin="round"/>
<path d="M32.2378 254.965L11.0461 256.693L4.83123 267.222L27.9052 284.857L32.2378 254.965Z" fill="#C5E9DA" stroke="#36B37E" stroke-width="1.55764" stroke-miterlimit="10" stroke-linejoin="round"/>
<mask id="mask2_1_590" style="mask-type:alpha" maskUnits="userSpaceOnUse" x="-70" y="201" width="147" height="80">
<path d="M-13.2931 244.643L1.13315 248.954L10.7212 239.015L24.4256 243.327L14.8385 252.905L28.3629 257.037L18.9557 266.794L5.25044 262.843L-8.81579 258.893L-18.9456 269.012L-33.7337 265.063L-44.2253 275.544L-59.7352 271.595L-48.7018 260.933L-38.2102 250.452L-23.423 254.762L-13.2931 244.643Z" fill="#C5E9DA"/>
<path d="M-3.16417 234.884L6.60388 225.126L20.3083 229.438L10.7212 239.015L-3.16417 234.884Z" fill="#36B37E"/>
<path d="M37.589 247.46L24.4255 243.327L33.6517 233.75L20.3082 229.438L29.7145 220.041L42.6971 224.354L55.3188 228.667L46.6344 238.063L59.2569 242.016L71.6986 246.149L63.1951 255.364L50.5725 251.412L41.3462 260.989L28.3628 257.037L37.589 247.46Z" fill="#5E78A5"/>
<path d="M54.3298 264.941L45.4644 274.517L32.3001 270.746L41.3463 260.989L54.3298 264.941Z" fill="#36B37E"/>
<path d="M76.4442 223.766L67.9406 232.981L55.3189 228.667L64.1834 219.452L76.4442 223.766Z" fill="#36B37E"/>
<path d="M6.60388 225.126L-7.2806 220.634L2.30656 211.056L12.0737 201.659L25.5973 206.152L38.7591 211.006L29.7146 220.041L16.191 215.548L6.60388 225.126Z" fill="#36B37E"/>
<path d="M32.3001 270.746L23.073 280.684L9.18677 276.913L18.9557 266.794L32.3001 270.746Z" fill="#36B37E"/>
</mask>
<g mask="url(#mask2_1_590)">
<path d="M-31.2905 224.457L78.2669 216.184L28.5313 256.951L10.1006 258.395L3.6977 268.327L-59.5464 268.166L-31.2905 224.457Z" fill="#36B37E" stroke="#36B37E" stroke-width="1.55764" stroke-miterlimit="10" stroke-linejoin="round"/>
</g>
</g>
<defs>
<clipPath id="clip0_1_590">
<rect width="105.273" height="67.1849" fill="white" transform="translate(274 352.165) rotate(-25.4057)"/>
</clipPath>
<clipPath id="clip1_1_590">
<rect width="316.165" height="450.963" fill="white" transform="matrix(-0.987301 0.15886 0.15886 0.987301 1529.15 0)"/>
</clipPath>
<clipPath id="clip2_1_590">
<rect width="236" height="261.092" fill="white" transform="matrix(-0.707463 0.706751 0.706751 0.707463 8.96094 145)"/>
</clipPath>
</defs>
</svg>
