<svg width="57" height="146" viewBox="0 0 57 146" fill="none" xmlns="http://www.w3.org/2000/svg">
<path d="M77.3815 2.62861L93.2511 12.1844L49.1576 136.671L29.4373 143.746L20.6256 133.728L18.1811 125.644L47.1199 54.5892L54.1463 48.0768L51.312 41.3346L64.3323 8.09194L77.3815 2.62861Z" fill="white"/>
<mask id="mask0_8_129" style="mask-type:alpha" maskUnits="userSpaceOnUse" x="18" y="2" width="76" height="142">
<path d="M77.3815 2.62861L93.2511 12.1844L49.1576 136.671L29.4373 143.746L20.6256 133.728L18.1811 125.644L47.1199 54.5892L54.1463 48.0768L51.312 41.3346L64.3323 8.09194L77.3815 2.62861Z" fill="white"/>
</mask>
<g mask="url(#mask0_8_129)">
<path d="M44.8427 67.1991L47.0413 60.7907L53.2171 59.8643L55.3162 53.6737L49.206 54.5896L51.3262 48.5302L45.2053 49.3805L42.9645 55.5266L40.6792 61.8144L34.241 62.783L31.7906 69.2992L25.1112 70.4412L22.5062 77.2514L29.3063 76.0226L35.9857 74.8806L38.3494 68.2439L44.8427 67.1991Z" fill="#FFE7E8"/>
<path d="M51.1284 66.1212L57.2937 65.1292L59.3167 58.8837L53.217 59.8651L51.1284 66.1212Z" fill="#FF6163"/>
<path d="M42.5233 73.6952L48.9404 72.5954L51.1284 66.1215L44.8425 67.2002L42.5233 73.6952Z" fill="#FF6163"/>
<path d="M46.7079 79.2107L53.1144 78.0453L55.2263 71.5164L48.9404 72.5951L46.7079 79.2107Z" fill="#172B4D"/>
<path d="M40.1809 80.4629L42.5235 73.695L35.9858 74.8815L33.512 81.6705L31.0042 88.6668L37.7832 87.3069L44.4416 86.0338L46.708 79.2108L40.1809 80.4629Z" fill="#172B4D"/>
<path d="M57.3157 47.7016L55.3161 53.6743L61.2952 52.7795L59.3167 58.8834L65.2958 57.9886L67.2192 51.9609L69.0326 46.0854L63.2397 46.883L65.1292 41.0625L66.9848 35.4493L61.2364 36.1052L59.3258 41.7945L53.4018 42.6131L51.326 48.5308L57.3157 47.7016Z" fill="#FF6163"/>
<path d="M55.3568 36.7818L49.4223 37.5349L47.336 43.387L53.4018 42.6128L55.3568 36.7818Z" fill="#172B4D"/>
<path d="M57.2937 65.1291L55.2263 71.5164L61.381 70.4588L67.394 69.3568L69.2858 63.1323L71.1331 57.0496L65.2957 57.9888L63.3934 64.1477L57.2937 65.1291Z" fill="#FF6163"/>
<path d="M57.2988 83.5611L59.3896 76.901L53.1143 78.0453L50.9029 84.7921L57.2988 83.5611Z" fill="#FF6163"/>
<path d="M42.0647 93.009L48.6469 91.6808L50.9028 84.7922L44.4413 86.0337L42.0647 93.009Z" fill="#FF6163"/>
<path d="M47.3361 43.3875L41.2047 44.1723L38.9428 50.1872L45.2054 49.3813L47.3361 43.3875Z" fill="#FF6163"/>
</g>
<path d="M77.3815 2.62861L29.4373 143.746L49.1576 136.671L93.2511 12.1844L77.3815 2.62861Z" fill="#FFE7E8"/>
<path d="M77.3815 2.62861L93.2511 12.1844L49.1576 136.671L29.4373 143.746L20.6256 133.728L18.1811 125.644L47.1199 54.5892L54.1463 48.0768L51.312 41.3346L64.3323 8.09194L77.3815 2.62861Z" stroke="#FF6163" stroke-width="1.57158" stroke-miterlimit="10" stroke-linejoin="round"/>
<path d="M77.2472 57.4108L66.4342 57.5361L60.2903 52.8064L54.1464 48.0767" stroke="#FF6163" stroke-width="1.57158" stroke-miterlimit="10" stroke-linejoin="round"/>
<path d="M66.4343 57.5356L58.2358 58.8548L49.9834 83.2574" stroke="#FF6163" stroke-width="1.57158" stroke-miterlimit="10" stroke-linejoin="round"/>
<path d="M47.9286 89.3066L37.2851 78.7754L18.1811 125.644L20.6255 133.727L29.4372 143.746L47.9286 89.3066Z" fill="white" stroke="#FF6163" stroke-width="1.57158" stroke-miterlimit="10" stroke-linejoin="round"/>
<path d="M64.0916 95.2502L46.6959 92.9364L45.3 86.7701L48.568 88.2624L64.0916 95.2502Z" fill="#172B4D"/>
<path d="M29.4371 143.747L82.7604 135.167L112.275 130.418L95.7719 113.161L18.181 125.645L20.6255 133.728L29.4371 143.747Z" fill="#172B4D"/>
</svg>
