<svg width="1413" height="1037" viewBox="0 0 1413 1037" fill="none" xmlns="http://www.w3.org/2000/svg">
<path d="M128.813 718.732L400.472 541.011" stroke="#A5ADBA" stroke-miterlimit="10" stroke-linecap="round" stroke-dasharray="1 1"/>
<path d="M47.8549 479.828L356.78 418.062" stroke="#A5ADBA" stroke-miterlimit="10" stroke-linecap="round" stroke-dasharray="1 1"/>
<path d="M44 223.734L352.925 285.499" stroke="#A5ADBA" stroke-miterlimit="10" stroke-linecap="round" stroke-dasharray="1 1"/>
<path d="M117.504 -18.375L389.163 159.347" stroke="#A5ADBA" stroke-miterlimit="10" stroke-linecap="round" stroke-dasharray="1 1"/>
<path d="M259.631 -217.365L461.383 55.044" stroke="#A5ADBA" stroke-miterlimit="10" stroke-linecap="round" stroke-dasharray="1 1"/>
<path d="M1095.68 -233.68L894.188 38.4378" stroke="#A5ADBA" stroke-miterlimit="10" stroke-linecap="round" stroke-dasharray="1 1"/>
<path d="M1243.72 -40.5175L972.318 137.204" stroke="#A5ADBA" stroke-miterlimit="10" stroke-linecap="round" stroke-dasharray="1 1"/>
<path d="M1324.68 198.678L1016.01 260.152" stroke="#A5ADBA" stroke-miterlimit="10" stroke-linecap="round" stroke-dasharray="1 1"/>
<path d="M1328.79 454.481L1019.87 392.715" stroke="#A5ADBA" stroke-miterlimit="10" stroke-linecap="round" stroke-dasharray="1 1"/>
<path d="M1255.03 696.59L983.627 518.868" stroke="#A5ADBA" stroke-miterlimit="10" stroke-linecap="round" stroke-dasharray="1 1"/>
<path d="M1112.9 895.58L911.409 623.17" stroke="#A5ADBA" stroke-miterlimit="10" stroke-linecap="round" stroke-dasharray="1 1"/>
<path d="M919.374 1027.56L812.201 693.385" stroke="#A5ADBA" stroke-miterlimit="10" stroke-linecap="round" stroke-dasharray="1 1"/>
<path d="M686.524 949.771L686.524 720.771" stroke="#A5ADBA" stroke-miterlimit="10" stroke-linecap="round" stroke-dasharray="1 1"/>
<path d="M474.491 1036.3L581.921 702.125" stroke="#A5ADBA" stroke-miterlimit="10" stroke-linecap="round" stroke-dasharray="1 1"/>
<path d="M277.107 911.895L478.603 639.777" stroke="#A5ADBA" stroke-miterlimit="10" stroke-linecap="round" stroke-dasharray="1 1"/>
<path d="M128.813 718.732L400.472 541.011" stroke="#A5ADBA" stroke-miterlimit="10" stroke-linecap="round" stroke-dasharray="1 1"/>
<path d="M47.8549 479.828L356.78 418.062" stroke="#A5ADBA" stroke-miterlimit="10" stroke-linecap="round" stroke-dasharray="1 1"/>
<path d="M44 223.734L352.925 285.499" stroke="#A5ADBA" stroke-miterlimit="10" stroke-linecap="round" stroke-dasharray="1 1"/>
<path d="M117.504 -18.375L389.163 159.347" stroke="#A5ADBA" stroke-miterlimit="10" stroke-linecap="round" stroke-dasharray="1 1"/>
<path d="M259.631 -217.365L461.383 55.044" stroke="#A5ADBA" stroke-miterlimit="10" stroke-linecap="round" stroke-dasharray="1 1"/>
<g clip-path="url(#clip0_1_26)">
<path d="M1114.27 300.423L1232.14 178.735L1403.88 221.388L1285.33 343.038L1114.27 300.423Z" fill="#FFE7E8" stroke="#FF6163" stroke-width="2.29137" stroke-miterlimit="10" stroke-linejoin="round"/>
<path d="M1285.33 343.038L1403.88 221.388L1440.51 388.632L1330.23 507.572L1285.33 343.038Z" fill="white" stroke="#FF6163" stroke-width="2.29137" stroke-miterlimit="10" stroke-linejoin="round"/>
<path d="M1285.33 343.038L1213.12 406.489L1330.23 507.572L1285.33 343.038Z" fill="white" stroke="#FF6163" stroke-width="2.29137" stroke-miterlimit="10" stroke-linejoin="round"/>
<path d="M1213.12 406.489L1114.27 300.423L1285.33 343.038L1213.12 406.489Z" fill="white" stroke="#FF6163" stroke-width="2.29137" stroke-miterlimit="10" stroke-linejoin="round"/>
<path d="M1330.23 507.572L1158.14 461.18L1213.12 406.489L1330.23 507.572Z" fill="#FFE7E8" stroke="#FF6163" stroke-width="2.29137" stroke-miterlimit="10" stroke-linejoin="round"/>
<path d="M1114.27 300.423L1158.14 461.179L1213.12 406.489L1114.27 300.423Z" fill="white" stroke="#FF6163" stroke-width="2.29137" stroke-miterlimit="10" stroke-linejoin="round"/>
<path d="M1249.12 374.792L1270.98 355.747L1249.12 374.792Z" fill="#644DF2"/>
<path d="M1266.23 338.329L1270.98 355.748L1285.33 343.038L1266.23 338.329Z" fill="#FF6163"/>
<path d="M1266.23 338.329L1382.61 216.144L1353.11 208.861L1237.21 331.14L1266.23 338.329Z" fill="#FF6163"/>
<path d="M1215.4 325.592L1331.78 203.408L1302.28 196.124L1186.38 318.404L1215.4 325.592Z" fill="#FF6163"/>
<path d="M1215.4 325.592L1233.04 390.23L1249.12 374.792L1237.21 331.14L1215.4 325.592Z" fill="#FF6163"/>
<path d="M1186.38 318.404L1209.28 402.35L1158.89 348.229L1148.12 308.775L1186.38 318.404Z" fill="#FF6163"/>
<path d="M1148.12 308.775L1165.96 291.505L1131.31 282.696L1114.27 300.423L1148.12 308.775Z" fill="#172B4D"/>
<path d="M1202.69 301.325L1219.3 283.712L1181.52 274.178L1164.43 291.696L1202.69 301.325Z" fill="#172B4D"/>
<path d="M1181.52 274.178L1199.36 256.909L1164.71 248.1L1147.62 265.617L1181.52 274.178Z" fill="#172B4D"/>
<path d="M1208.52 411.126L1213.12 406.489L1175.71 466.08L1158.14 461.18L1208.52 411.126Z" fill="#172B4D"/>
<path d="M1415.4 273.492L1393.63 297.02L1402.45 334.3L1423.65 311.153L1415.4 273.492Z" fill="#FF6163"/>
<path d="M1400.6 326.688L1406.69 354.791L1385.5 377.937L1378.93 349.739L1307.78 425.305C1307.78 425.305 1327.25 496.659 1330.23 507.572C1333.2 518.485 1440.56 388.842 1440.56 388.842L1421.97 304.171L1400.6 326.688Z" fill="#172B4D"/>
</g>
<g opacity="0.88">
<g clip-path="url(#clip1_1_26)">
<path d="M395.706 780.101L354.867 844.872L274.94 841.952L316.087 777.134L395.706 780.101Z" fill="#FFE7E8" stroke="#FF6163" stroke-width="1.11251" stroke-miterlimit="10" stroke-linejoin="round"/>
<path d="M316.087 777.134L274.941 841.952L243.213 771.375L280.949 708.525L316.087 777.134Z" fill="white" stroke="#FF6163" stroke-width="1.11251" stroke-miterlimit="10" stroke-linejoin="round"/>
<path d="M316.087 777.134L342.134 742.363L280.949 708.525L316.087 777.134Z" fill="white" stroke="#FF6163" stroke-width="1.11251" stroke-miterlimit="10" stroke-linejoin="round"/>
<path d="M342.134 742.363L395.707 780.101L316.087 777.134L342.134 742.363Z" fill="white" stroke="#FF6163" stroke-width="1.11251" stroke-miterlimit="10" stroke-linejoin="round"/>
<path d="M280.949 708.525L361.375 713.067L342.134 742.363L280.949 708.525Z" fill="#FFE7E8" stroke="#FF6163" stroke-width="1.11251" stroke-miterlimit="10" stroke-linejoin="round"/>
<path d="M395.707 780.101L361.375 713.067L342.134 742.363L395.707 780.101Z" fill="white" stroke="#FF6163" stroke-width="1.11251" stroke-miterlimit="10" stroke-linejoin="round"/>
<path d="M329.155 759.726L321.253 770.18L329.155 759.726Z" fill="#644DF2"/>
<path d="M324.973 777.443L321.253 770.18L316.087 777.134L324.973 777.443Z" fill="#FF6163"/>
<path d="M324.973 777.444L284.838 842.296L298.562 842.779L338.477 777.928L324.973 777.444Z" fill="#FF6163"/>
<path d="M348.639 778.358L308.504 843.21L322.228 843.693L362.143 778.843L348.639 778.358Z" fill="#FF6163"/>
<path d="M348.639 778.358L334.835 751.404L329.155 759.726L338.477 777.928L348.639 778.358Z" fill="#FF6163"/>
<path d="M362.143 778.843L344.215 743.838L371.533 763.097L379.959 779.55L362.143 778.843Z" fill="#FF6163"/>
<path d="M379.959 779.55L373.673 788.845L389.818 789.524L395.707 780.101L379.959 779.55Z" fill="#172B4D"/>
<path d="M356.515 787.912L350.801 797.245L368.397 797.954L374.33 788.619L356.515 787.912Z" fill="#172B4D"/>
<path d="M368.396 797.954L362.11 807.249L378.255 807.929L384.189 798.593L368.396 797.954Z" fill="#172B4D"/>
<path d="M343.737 739.885L342.134 742.363L353.147 712.531L361.375 713.067L343.737 739.885Z" fill="#172B4D"/>
<path d="M265.01 819.974L272.453 807.545L265.09 791.874L257.864 804.081L265.01 819.974Z" fill="#FF6163"/>
<path d="M266.616 795.07L261.312 783.205L268.537 770.998L274.061 782.861L298.518 742.829C298.518 742.829 283.279 713.075 280.949 708.525C278.618 703.974 243.168 771.288 243.168 771.288L259.256 807.014L266.616 795.07Z" fill="#172B4D"/>
</g>
</g>
<g opacity="0.32">
<g clip-path="url(#clip2_1_26)">
<path d="M515.39 94.1901L533.644 117.444L522.213 146.129L503.981 122.757L515.39 94.1901Z" fill="#FFE7E8" stroke="#FF6163" stroke-width="1.11251" stroke-miterlimit="10" stroke-linejoin="round"/>
<path d="M503.981 122.757L522.212 146.128L492.432 148.509L474.474 126.633L503.981 122.757Z" fill="white" stroke="#FF6163" stroke-width="1.11251" stroke-miterlimit="10" stroke-linejoin="round"/>
<path d="M503.981 122.757L494.717 108.774L474.474 126.633L503.981 122.757Z" fill="white" stroke="#FF6163" stroke-width="1.11251" stroke-miterlimit="10" stroke-linejoin="round"/>
<path d="M494.717 108.774L515.39 94.1895L503.981 122.757L494.717 108.774Z" fill="white" stroke="#FF6163" stroke-width="1.11251" stroke-miterlimit="10" stroke-linejoin="round"/>
<path d="M474.474 126.633L486.56 97.9767L494.717 108.774L474.474 126.633Z" fill="#FFE7E8" stroke="#FF6163" stroke-width="1.11251" stroke-miterlimit="10" stroke-linejoin="round"/>
<path d="M515.39 94.1895L486.56 97.9766L494.717 108.774L515.39 94.1895Z" fill="white" stroke="#FF6163" stroke-width="1.11251" stroke-miterlimit="10" stroke-linejoin="round"/>
<path d="M499.346 115.746L502.122 119.976L499.346 115.746Z" fill="#644DF2"/>
<path d="M505.246 119.566L502.123 119.976L503.981 122.756L505.246 119.566Z" fill="#FF6163"/>
<path d="M505.246 119.566L523.622 142.574L525.578 137.646L507.175 114.718L505.246 119.566Z" fill="#FF6163"/>
<path d="M508.649 111.078L527.024 134.087L528.981 129.159L510.578 106.231L508.649 111.078Z" fill="#FF6163"/>
<path d="M508.649 111.079L497.057 112.601L499.346 115.746L507.175 114.718L508.649 111.079Z" fill="#FF6163"/>
<path d="M510.578 106.231L495.523 108.208L506.07 100.774L513.146 99.8442L510.578 106.231Z" fill="#FF6163"/>
<path d="M513.146 99.8443L515.711 103.336L518.052 97.5535L515.39 94.1895L513.146 99.8443Z" fill="#172B4D"/>
<path d="M513.145 109.454L515.798 112.743L518.338 106.437L515.714 103.068L513.145 109.454Z" fill="#172B4D"/>
<path d="M518.338 106.437L520.903 109.928L523.244 104.146L520.62 100.777L518.338 106.437Z" fill="#172B4D"/>
<path d="M494.023 107.87L494.717 108.774L485.297 100.899L486.56 97.9767L494.023 107.87Z" fill="#172B4D"/>
<path d="M512.932 146.888L509.378 142.569L502.725 143.213L506.226 147.424L512.932 146.888Z" fill="#FF6163"/>
<path d="M504.085 143.073L499.082 143.462L495.581 139.251L500.611 138.782L489.227 124.694C489.227 124.694 476.431 126.375 474.474 126.633C472.517 126.89 492.395 148.514 492.395 148.514L507.473 147.299L504.085 143.073Z" fill="#172B4D"/>
</g>
</g>
<g clip-path="url(#clip3_1_26)">
<path d="M30.2922 349.725L178.988 257.452C178.988 257.452 59.7304 445.868 57.7306 445.055C57.7306 445.055 39.187 375.239 30.2922 349.725Z" fill="white" stroke="#FF6163" stroke-width="1.43899" stroke-miterlimit="10" stroke-linejoin="round"/>
<path d="M178.988 257.452L183.47 263.623C183.47 263.623 188.303 458.183 187.999 460.079C187.695 461.974 190.678 463.808 185.995 465.012C181.312 466.216 98.3842 453.184 77.9908 449.092C57.7306 445.055 57.7306 445.055 57.7306 445.055L178.988 257.452Z" fill="#FF6163"/>
<path d="M86.7357 338.485L123.14 436.215L185.449 402.506L182.954 300.068L86.7357 338.485Z" fill="#FFE7E8"/>
<mask id="mask0_1_26" style="mask-type:alpha" maskUnits="userSpaceOnUse" x="87" y="300" width="99" height="137">
<path d="M87.216 339.189L123.62 436.919L185.929 403.211L183.434 300.773L87.216 339.189Z" fill="#C5E9DA"/>
</mask>
<g mask="url(#mask0_1_26)">
<path d="M176.527 398.561L159.87 395.211L159.487 416.8L141.573 413.871L140.431 437.327L159.016 439.752L176.693 442.118L193.462 444.426L192.779 422.404L176.494 419.671L176.527 398.561Z" fill="#FF6163"/>
<path d="M142.439 391.857L159.87 395.211L160.22 374.851L143.46 370.993L142.439 391.857Z" fill="#FF6163"/>
<path d="M124.208 388.178L122.671 410.697L141.573 413.871L142.439 391.857L124.208 388.178Z" fill="#FF6163"/>
<path d="M124.208 388.179L125.658 367.023L107.002 362.861L104.935 384.387L124.208 388.179Z" fill="#FF6163"/>
<path d="M104.935 384.387L84.8084 380.404L81.7962 403.877L78.5883 428.978L100.377 431.927L120.992 434.71L122.671 410.697L102.727 407.409L104.935 384.387Z" fill="#FF6163"/>
<path d="M222.013 407.41L220.672 388.537L206.607 385.308L191.821 381.942L191.334 363.261L176.389 359.519L160.725 355.641L160.22 374.851L176.448 378.492L176.527 398.561L192.383 401.585L192.779 422.404L208.344 424.999L207.465 404.606L222.013 407.41Z" fill="#FF6163"/>
<path d="M204.982 349.546L190.867 345.675L191.334 363.261L205.823 366.973L204.982 349.546Z" fill="#FF6163"/>
<path d="M144.26 351.437L160.725 355.641L161.037 337.284L145.135 332.843L128.378 328.21L127.074 347.096L125.658 367.023L143.46 370.993L144.26 351.437Z" fill="#FF6163"/>
<path d="M109.035 342.563L90.1953 337.705L87.5456 358.374L107.002 362.861L109.035 342.563Z" fill="#FF6163"/>
<path d="M66.9147 353.72L63.3734 376.201L84.8084 380.404L87.5456 358.374L66.9147 353.72Z" fill="#FF6163"/>
</g>
<path d="M86.7357 338.485L140.509 316.995L101.751 378.755L86.7357 338.485Z" fill="#172B4D"/>
<path d="M57.3724 332.769L45.7279 401.194" stroke="#FF6163" stroke-width="1.43899" stroke-miterlimit="10" stroke-linejoin="round"/>
<path d="M54.9436 347.159L50.2941 337.193L57.3725 332.769L54.9436 347.159Z" fill="#172B4D"/>
<path d="M150.728 275.017L165.11 278.996" stroke="#FF6163" stroke-width="1.43899" stroke-miterlimit="10" stroke-linejoin="round"/>
<path d="M97.022 368.602L132.48 458.337" stroke="white" stroke-width="1.43899" stroke-miterlimit="10" stroke-linejoin="round"/>
</g>
<g clip-path="url(#clip4_1_26)">
<path d="M1058.3 106.296L949.432 91.8535L903.976 47.7558L910.009 -63.6215L924.795 -84.9284L957.777 -80.3162L1064.14 34.2941L1058.3 106.296Z" fill="#FFE7E8" stroke="#FF6163" stroke-width="1.51665" stroke-miterlimit="10" stroke-linejoin="round"/>
<path d="M986.28 96.748L983.764 64.7266C983.764 64.7266 972.766 94.9392 968.191 94.349C963.492 93.6723 986.28 96.748 986.28 96.748Z" fill="#FF6163"/>
<path d="M1012.3 100.221L1037.25 5.47798" stroke="#FF6163" stroke-width="1.51665" stroke-miterlimit="10"/>
<path d="M1030.96 29.1732L1029.09 -3.5093" stroke="#FF6163" stroke-width="1.51665" stroke-miterlimit="10"/>
<path d="M909.495 -40.1957L953.99 -11.2964L965.003 1.60033L953.453 10.2429L908.71 -26.253L909.495 -40.1957Z" fill="white" stroke="#FF6163" stroke-width="1.51665"/>
<path d="M983.322 80.129L983.655 30.7011" stroke="#FF6163" stroke-width="1.51665" stroke-miterlimit="10"/>
<path d="M921.147 -23.9384L908.272 -30.6577L904.031 47.8109L949.487 91.9087L953.433 11.2048L947.717 1.88445L921.147 -23.9384Z" fill="#172B4D"/>
</g>
<g opacity="0.48" clip-path="url(#clip5_1_26)">
<path d="M544.805 625.853L628.36 676.82C628.36 676.82 640.732 686.566 629.099 707.557C617.466 728.548 603.373 723.457 603.373 723.457L516.596 673.513C516.596 673.513 506.313 664.044 516.625 644.624C528.555 622.038 544.805 625.853 544.805 625.853Z" fill="#FFE7E8" stroke="#FF6163" stroke-width="0.736762" stroke-miterlimit="10"/>
<path d="M544.805 625.853C544.805 625.853 556.646 633.114 544.012 657.016C532.14 679.402 516.596 673.513 516.596 673.513C516.596 673.513 506.608 663.207 516.625 644.624C526.643 626.041 538.666 625.71 544.805 625.853Z" fill="#FF6163"/>
<path d="M621.728 672.74C621.728 672.74 614.002 684.502 593.66 692.628C572.086 701.267 559.799 698.377 559.799 698.377L577.23 708.442C577.23 708.442 586.378 710.374 608.929 699.847C627.34 691.273 632.597 682.812 632.597 682.812L628.259 676.791L621.728 672.74Z" fill="#172B4D"/>
<path d="M592.106 654.934C592.106 654.934 584.626 665.465 562.497 672.643C540.369 679.821 525.179 678.535 525.179 678.535L542.61 688.599C542.61 688.599 556.732 690.392 576.674 682.15C595.153 674.463 605.705 663.244 605.705 663.244L595.014 656.694L592.106 654.934Z" fill="#FF6163"/>
<path d="M544.012 657.016C544.012 657.016 567.201 658.764 580.83 647.781L565.88 638.702C565.88 638.702 559.061 641.292 549.733 639.797C549.733 639.797 547.276 650.582 544.012 657.016Z" fill="#172B4D"/>
<path d="M535.159 647.85L532.217 651.665L533.201 669.135C533.201 669.135 539.967 664.47 544.012 657.016L540.425 648.392L535.159 647.85Z" fill="white" stroke="#FF6163" stroke-width="0.736762" stroke-miterlimit="10"/>
<path d="M548.421 631.178C548.421 631.178 547.422 626.932 544.77 625.788L530.734 646.087C530.734 646.087 535.618 647.765 536.833 648.441C538.083 649.181 540.378 650.438 540.378 650.438L548.985 644.84C549.02 644.904 551.97 638.056 548.421 631.178Z" fill="white" stroke="#FF6163" stroke-width="0.736762" stroke-miterlimit="10"/>
<path d="M631.436 702.646C631.436 702.646 618.907 711.506 603.623 714.312C589.419 716.942 588.107 714.721 588.107 714.721L603.373 723.457C603.373 723.457 609.895 725.662 618.064 720.642C626.233 715.623 631.436 702.646 631.436 702.646Z" fill="#FF6163"/>
<path d="M536.868 648.505C536.868 648.505 535.774 641.955 534.462 639.734C533.15 637.512 532.858 636.832 532.858 636.832L529.755 642.335L530.769 646.152L536.868 648.505Z" fill="white" stroke="#FF6163" stroke-width="0.736762" stroke-miterlimit="10"/>
<path d="M532.152 651.701L527.825 650.725L512.311 663.17C512.311 663.17 511.914 664.736 514.142 669.987L515.519 672.173L533.892 654.696C533.827 654.731 534.348 652.171 532.152 651.701Z" fill="white" stroke="#FF6163" stroke-width="0.736762" stroke-miterlimit="10"/>
<path d="M532.152 651.701C532.152 651.701 526.405 661.864 526.627 661.657C526.849 661.45 535.463 656.016 535.463 656.016C535.463 656.016 535.151 651.643 532.152 651.701Z" fill="white" stroke="#FF6163" stroke-width="0.736762" stroke-miterlimit="10"/>
</g>
<g clip-path="url(#clip6_1_26)">
<path d="M919.352 815.519L1012.29 656.525C1012.29 656.525 1030.19 632.904 1070.09 654.049C1110 675.194 1100.92 701.888 1100.92 701.888L1010.01 866.909C1010.01 866.909 992.562 886.59 955.662 867.873C912.748 846.225 919.352 815.519 919.352 815.519Z" fill="#FFE7E8" stroke="#FF6163" stroke-width="1.38636" stroke-miterlimit="10"/>
<path d="M919.354 815.519C919.354 815.519 932.597 792.985 978.01 815.911C1020.55 837.457 1010.02 866.909 1010.02 866.909C1010.02 866.909 990.979 886.064 955.664 867.873C920.348 849.683 919.302 827.075 919.354 815.519Z" fill="#FF6163"/>
<path d="M1004.85 669.145C1004.85 669.145 1027.25 683.267 1043.26 721.25C1060.27 761.533 1055.27 784.752 1055.27 784.752L1073.59 751.603C1073.59 751.603 1076.9 734.324 1056.3 692.268C1039.52 657.934 1023.42 648.342 1023.42 648.342L1012.24 656.714L1004.85 669.145Z" fill="#172B4D"/>
<path d="M972.397 725.503C972.397 725.503 992.474 739.205 1006.76 780.583C1021.04 821.962 1019.16 850.584 1019.16 850.584L1037.48 817.435C1037.48 817.435 1040.35 790.803 1024.14 753.577C1009.03 719.081 987.552 699.625 987.552 699.625L975.606 719.969L972.397 725.503Z" fill="#FF6163"/>
<path d="M978.01 815.911C978.01 815.911 980.481 772.223 959.338 746.97L942.785 775.417C942.785 775.417 947.897 788.153 945.413 805.756C945.413 805.756 965.792 809.998 978.01 815.911Z" fill="#172B4D"/>
<path d="M961.079 832.89L968.36 838.291L1001.19 835.824C1001.19 835.824 992.178 823.259 978.01 815.911L961.912 822.964L961.079 832.89Z" fill="white" stroke="#FF6163" stroke-width="1.38636" stroke-miterlimit="10"/>
<path d="M929.244 808.528C929.244 808.528 921.292 810.558 919.234 815.588L957.918 841.278C957.918 841.278 960.903 832.031 962.131 829.721C963.479 827.342 965.764 822.981 965.764 822.981L954.928 806.986C955.048 806.917 942.059 801.609 929.244 808.528Z" fill="white" stroke="#FF6163" stroke-width="1.38636" stroke-miterlimit="10"/>
<path d="M1060.77 649.826C1060.77 649.826 1077.88 673.085 1083.7 701.741C1089.15 728.371 1085.02 730.917 1085.02 730.917L1100.92 701.888C1100.92 701.888 1104.83 689.542 1095.1 674.349C1085.37 659.157 1060.77 649.826 1060.77 649.826Z" fill="#FF6163"/>
<path d="M962.251 829.652C962.251 829.652 949.967 831.942 945.834 834.488C941.701 837.034 940.431 837.608 940.431 837.608L950.894 843.253L958.038 841.209L962.251 829.652Z" fill="white" stroke="#FF6163" stroke-width="1.38636" stroke-miterlimit="10"/>
<path d="M968.429 838.411L966.746 846.587L990.708 875.335C990.708 875.335 993.668 876.027 1003.47 871.65L1007.53 868.984L974.003 835.033C974.072 835.154 969.236 834.264 968.429 838.411Z" fill="white" stroke="#FF6163" stroke-width="1.38636" stroke-miterlimit="10"/>
<path d="M968.429 838.411C968.429 838.411 987.752 848.866 987.355 848.456C986.958 848.045 976.431 832.031 976.431 832.031C976.431 832.031 968.215 832.772 968.429 838.411Z" fill="white" stroke="#FF6163" stroke-width="1.38636" stroke-miterlimit="10"/>
</g>
<defs>
<clipPath id="clip0_1_26">
<rect width="302.379" height="345.234" fill="white" transform="translate(1090.2 216.344) rotate(-15.2643)"/>
</clipPath>
<clipPath id="clip1_1_26">
<rect width="136.667" height="156.036" fill="white" transform="translate(414.162 815.056) rotate(152.88)"/>
</clipPath>
<clipPath id="clip2_1_26">
<rect width="52.7646" height="60.2428" fill="white" transform="translate(530.495 92.0138) rotate(82.5164)"/>
</clipPath>
<clipPath id="clip3_1_26">
<rect width="217" height="220.885" fill="white" transform="translate(83.1362 217.736) rotate(22.1095)"/>
</clipPath>
<clipPath id="clip4_1_26">
<rect width="220.218" height="147.722" fill="white" transform="translate(1029.92 148.65) rotate(-145.241)"/>
</clipPath>
<clipPath id="clip5_1_26">
<rect width="123.408" height="98.3577" fill="white" transform="translate(586.087 597.736) rotate(61.0741)"/>
</clipPath>
<clipPath id="clip6_1_26">
<rect width="232.215" height="185.079" fill="white" transform="translate(865 738.844) rotate(-30)"/>
</clipPath>
</defs>
</svg>
