<svg width="375" height="650" viewBox="0 0 375 650" fill="none" xmlns="http://www.w3.org/2000/svg">
<path d="M-71.4805 468.094L44.3005 393.777" stroke="#A5ADBA" stroke-width="0.426199" stroke-miterlimit="10" stroke-linecap="round" stroke-dasharray="0.43 0.43"/>
<path d="M-105.984 368.193L25.6795 342.365" stroke="#A5ADBA" stroke-width="0.426199" stroke-miterlimit="10" stroke-linecap="round" stroke-dasharray="0.43 0.43"/>
<path d="M-107.628 261.103L24.0362 286.931" stroke="#A5ADBA" stroke-width="0.426199" stroke-miterlimit="10" stroke-linecap="round" stroke-dasharray="0.43 0.43"/>
<path d="M-76.3007 159.862L39.4803 234.179" stroke="#A5ADBA" stroke-width="0.426199" stroke-miterlimit="10" stroke-linecap="round" stroke-dasharray="0.43 0.43"/>
<path d="M-15.7263 76.6509L70.2605 190.563" stroke="#A5ADBA" stroke-width="0.426199" stroke-miterlimit="10" stroke-linecap="round" stroke-dasharray="0.43 0.43"/>
<path d="M66.8652 21.583L112.542 161.202" stroke="#A5ADBA" stroke-width="0.426199" stroke-miterlimit="10" stroke-linecap="round" stroke-dasharray="0.43 0.43"/>
<path d="M166.216 1.11523V149.749" stroke="#A5ADBA" stroke-width="0.426199" stroke-miterlimit="10" stroke-linecap="round" stroke-dasharray="0.43 0.43"/>
<path d="M256.366 17.9277L210.688 157.547" stroke="#A5ADBA" stroke-width="0.426199" stroke-miterlimit="10" stroke-linecap="round" stroke-dasharray="0.43 0.43"/>
<path d="M340.599 69.8276L254.722 183.618" stroke="#A5ADBA" stroke-width="0.426199" stroke-miterlimit="10" stroke-linecap="round" stroke-dasharray="0.43 0.43"/>
<path d="M403.692 150.602L288.021 224.919" stroke="#A5ADBA" stroke-width="0.426199" stroke-miterlimit="10" stroke-linecap="round" stroke-dasharray="0.43 0.43"/>
<path d="M438.197 250.626L306.643 276.333" stroke="#A5ADBA" stroke-width="0.426199" stroke-miterlimit="10" stroke-linecap="round" stroke-dasharray="0.43 0.43"/>
<path d="M439.95 357.594L308.286 331.766" stroke="#A5ADBA" stroke-width="0.426199" stroke-miterlimit="10" stroke-linecap="round" stroke-dasharray="0.43 0.43"/>
<path d="M408.513 458.836L292.841 384.519" stroke="#A5ADBA" stroke-width="0.426199" stroke-miterlimit="10" stroke-linecap="round" stroke-dasharray="0.43 0.43"/>
<path d="M347.939 542.047L262.062 428.135" stroke="#A5ADBA" stroke-width="0.426199" stroke-miterlimit="10" stroke-linecap="round" stroke-dasharray="0.43 0.43"/>
<path d="M265.456 597.237L219.779 457.496" stroke="#A5ADBA" stroke-width="0.426199" stroke-miterlimit="10" stroke-linecap="round" stroke-dasharray="0.43 0.43"/>
<path d="M166.216 564.707L166.216 468.947" stroke="#A5ADBA" stroke-width="0.426199" stroke-miterlimit="10" stroke-linecap="round" stroke-dasharray="0.43 0.43"/>
<path d="M75.8477 600.89L121.634 461.149" stroke="#A5ADBA" stroke-width="0.426199" stroke-miterlimit="10" stroke-linecap="round" stroke-dasharray="0.43 0.43"/>
<path d="M-8.27747 548.869L77.5998 435.078" stroke="#A5ADBA" stroke-width="0.426199" stroke-miterlimit="10" stroke-linecap="round" stroke-dasharray="0.43 0.43"/>
<path d="M-71.4805 468.094L44.3005 393.777" stroke="#A5ADBA" stroke-width="0.426199" stroke-miterlimit="10" stroke-linecap="round" stroke-dasharray="0.43 0.43"/>
<path d="M-105.984 368.193L25.6795 342.365" stroke="#A5ADBA" stroke-width="0.426199" stroke-miterlimit="10" stroke-linecap="round" stroke-dasharray="0.43 0.43"/>
<path d="M-107.628 261.103L24.0362 286.931" stroke="#A5ADBA" stroke-width="0.426199" stroke-miterlimit="10" stroke-linecap="round" stroke-dasharray="0.43 0.43"/>
<path d="M-76.3007 159.862L39.4803 234.179" stroke="#A5ADBA" stroke-width="0.426199" stroke-miterlimit="10" stroke-linecap="round" stroke-dasharray="0.43 0.43"/>
<path d="M-15.7263 76.6509L70.2605 190.563" stroke="#A5ADBA" stroke-width="0.426199" stroke-miterlimit="10" stroke-linecap="round" stroke-dasharray="0.43 0.43"/>
<path d="M66.8652 21.583L112.542 161.202" stroke="#A5ADBA" stroke-width="0.426199" stroke-miterlimit="10" stroke-linecap="round" stroke-dasharray="0.43 0.43"/>
<g clip-path="url(#clip0_8_158)">
<path d="M351.195 274.088L401.432 222.225L474.628 240.404L424.098 292.251L351.195 274.088Z" fill="#FFE7E8" stroke="#FF6163" stroke-width="0.976579" stroke-miterlimit="10" stroke-linejoin="round"/>
<path d="M393.325 319.295L351.196 274.089L424.099 292.252L393.325 319.295Z" fill="white" stroke="#FF6163" stroke-width="0.976579" stroke-miterlimit="10" stroke-linejoin="round"/>
<path d="M443.236 362.377L369.894 342.604L393.325 319.295L443.236 362.377Z" fill="#FFE7E8" stroke="#FF6163" stroke-width="0.976579" stroke-miterlimit="10" stroke-linejoin="round"/>
<path d="M351.196 274.089L369.893 342.604L393.325 319.295L351.196 274.089Z" fill="white" stroke="#FF6163" stroke-width="0.976579" stroke-miterlimit="10" stroke-linejoin="round"/>
<path d="M394.296 284.817L443.899 232.742L431.327 229.637L381.927 281.753L394.296 284.817Z" fill="#FF6163"/>
<path d="M381.926 281.754L391.69 317.531L370.211 294.465L365.622 277.65L381.926 281.754Z" fill="#FF6163"/>
<path d="M365.622 277.649L373.224 270.289L358.456 266.535L351.196 274.09L365.622 277.649Z" fill="#172B4D"/>
<path d="M388.878 274.474L395.959 266.968L379.858 262.904L372.573 270.37L388.878 274.474Z" fill="#172B4D"/>
<path d="M379.858 262.904L387.46 255.543L372.692 251.789L365.408 259.255L379.858 262.904Z" fill="#172B4D"/>
<path d="M391.366 321.272L393.325 319.295L377.383 344.693L369.894 342.604L391.366 321.272Z" fill="#172B4D"/>
</g>
<g opacity="0.88">
<g clip-path="url(#clip1_8_158)">
<path d="M42.2707 505.107L24.865 532.712L-9.19969 531.467L8.33702 503.842L42.2707 505.107Z" fill="#FFE7E8" stroke="#FF6163" stroke-width="0.474153" stroke-miterlimit="10" stroke-linejoin="round"/>
<path d="M8.33595 503.842L-9.20076 531.467L-22.7231 501.387L-6.64011 474.6L8.33595 503.842Z" fill="white" stroke="#FF6163" stroke-width="0.474153" stroke-miterlimit="10" stroke-linejoin="round"/>
<path d="M8.336 503.841L19.4373 489.022L-6.64005 474.6L8.336 503.841Z" fill="white" stroke="#FF6163" stroke-width="0.474153" stroke-miterlimit="10" stroke-linejoin="round"/>
<path d="M19.4376 489.023L42.27 505.106L8.33633 503.842L19.4376 489.023Z" fill="white" stroke="#FF6163" stroke-width="0.474153" stroke-miterlimit="10" stroke-linejoin="round"/>
<path d="M-6.63999 474.6L27.6375 476.536L19.4373 489.022L-6.63999 474.6Z" fill="#FFE7E8" stroke="#FF6163" stroke-width="0.474153" stroke-miterlimit="10" stroke-linejoin="round"/>
<path d="M42.27 505.106L27.6378 476.537L19.4376 489.023L42.27 505.106Z" fill="white" stroke="#FF6163" stroke-width="0.474153" stroke-miterlimit="10" stroke-linejoin="round"/>
<path d="M13.905 496.422L10.5373 500.877L13.905 496.422Z" fill="#644DF2"/>
<path d="M12.1233 503.973L10.5378 500.877L8.3363 503.841L12.1233 503.973Z" fill="#FF6163"/>
<path d="M12.1228 503.973L-4.98272 531.613L0.866506 531.818L17.8783 504.179L12.1228 503.973Z" fill="#FF6163"/>
<path d="M22.2097 504.363L5.10419 532.003L10.9534 532.209L27.9652 504.57L22.2097 504.363Z" fill="#FF6163"/>
<path d="M22.2095 504.363L16.326 492.876L13.9053 496.422L17.8785 504.18L22.2095 504.363Z" fill="#FF6163"/>
<path d="M27.965 504.569L20.3242 489.65L31.9669 497.859L35.5581 504.871L27.965 504.569Z" fill="#FF6163"/>
<path d="M35.5584 504.871L32.8793 508.832L39.7601 509.122L42.27 505.106L35.5584 504.871Z" fill="#172B4D"/>
<path d="M25.5661 508.436L23.1308 512.413L30.6302 512.716L33.1592 508.737L25.5661 508.436Z" fill="#172B4D"/>
<path d="M30.6307 512.715L27.9516 516.676L34.8323 516.966L37.3614 512.987L30.6307 512.715Z" fill="#172B4D"/>
<path d="M20.1205 487.966L19.4373 489.022L24.1307 476.307L27.6375 476.536L20.1205 487.966Z" fill="#172B4D"/>
<path d="M-12.7483 511.485L-15.0086 506.428L-11.9292 501.226L-9.57514 506.282L0.848471 489.22C0.848471 489.22 -5.64625 476.539 -6.63956 474.6C-7.63287 472.66 -22.7417 501.349 -22.7417 501.349L-15.885 516.576L-12.7483 511.485Z" fill="#172B4D"/>
</g>
</g>
<g opacity="0.32">
<g clip-path="url(#clip2_8_158)">
<path d="M35.2614 135.484L43.0414 145.395L38.1693 157.62L30.399 147.659L35.2614 135.484Z" fill="#FFE7E8" stroke="#FF6163" stroke-width="0.474153" stroke-miterlimit="10" stroke-linejoin="round"/>
<path d="M30.3988 147.658L38.1691 157.619L25.4767 158.634L17.8229 149.31L30.3988 147.658Z" fill="white" stroke="#FF6163" stroke-width="0.474153" stroke-miterlimit="10" stroke-linejoin="round"/>
<path d="M30.3988 147.659L26.4503 141.7L17.8228 149.311L30.3988 147.659Z" fill="white" stroke="#FF6163" stroke-width="0.474153" stroke-miterlimit="10" stroke-linejoin="round"/>
<path d="M26.4499 141.699L35.2607 135.483L30.3983 147.659L26.4499 141.699Z" fill="white" stroke="#FF6163" stroke-width="0.474153" stroke-miterlimit="10" stroke-linejoin="round"/>
<path d="M17.8223 149.311L22.9735 137.098L26.4498 141.7L17.8223 149.311Z" fill="#FFE7E8" stroke="#FF6163" stroke-width="0.474153" stroke-miterlimit="10" stroke-linejoin="round"/>
<path d="M35.2607 135.483L22.9735 137.097L26.4499 141.699L35.2607 135.483Z" fill="white" stroke="#FF6163" stroke-width="0.474153" stroke-miterlimit="10" stroke-linejoin="round"/>
<path d="M28.4227 144.671L29.6059 146.474L28.4227 144.671Z" fill="#644DF2"/>
<path d="M30.9375 146.299L29.6061 146.474L30.3982 147.659L30.9375 146.299Z" fill="#FF6163"/>
<path d="M30.9377 146.3L38.7692 156.106L39.6029 154.006L31.7596 144.234L30.9377 146.3Z" fill="#FF6163"/>
<path d="M32.3882 142.682L40.2197 152.488L41.0534 150.388L33.2101 140.616L32.3882 142.682Z" fill="#FF6163"/>
<path d="M32.3884 142.682L27.4479 143.331L28.4235 144.672L31.76 144.233L32.3884 142.682Z" fill="#FF6163"/>
<path d="M33.2097 140.616L26.7934 141.459L31.2888 138.29L34.3044 137.894L33.2097 140.616Z" fill="#FF6163"/>
<path d="M34.3049 137.895L35.3978 139.383L36.3958 136.918L35.261 135.485L34.3049 137.895Z" fill="#172B4D"/>
<path d="M34.3042 141.99L35.4348 143.392L36.5176 140.704L35.3989 139.268L34.3042 141.99Z" fill="#172B4D"/>
<path d="M36.5175 140.704L37.6105 142.192L38.6084 139.727L37.4897 138.291L36.5175 140.704Z" fill="#172B4D"/>
<path d="M26.1544 141.314L26.4498 141.7L22.4354 138.343L22.9734 137.098L26.1544 141.314Z" fill="#172B4D"/>
<path d="M34.2133 157.943L32.6987 156.102L29.8629 156.377L31.3551 158.172L34.2133 157.943Z" fill="#FF6163"/>
<path d="M30.4429 156.317L28.3107 156.483L26.8185 154.688L28.9625 154.488L24.1107 148.484C24.1107 148.484 18.6569 149.201 17.8227 149.31C16.9886 149.42 25.4606 158.636 25.4606 158.636L31.887 158.118L30.4429 156.317Z" fill="#172B4D"/>
</g>
</g>
<g clip-path="url(#clip3_8_158)">
<path d="M387.404 90.1839L341.006 84.0286L321.633 65.2342L324.204 17.7653L330.506 8.68429L344.563 10.65L389.895 59.4968L387.404 90.1839Z" fill="#FFE7E8" stroke="#FF6163" stroke-width="0.646395" stroke-miterlimit="10" stroke-linejoin="round"/>
<path d="M356.71 86.1139L355.637 72.4664C355.637 72.4664 350.95 85.343 349 85.0915C346.997 84.8031 356.71 86.1139 356.71 86.1139Z" fill="#FF6163"/>
<path d="M367.799 87.5928L378.433 47.2135" stroke="#FF6163" stroke-width="0.646395" stroke-miterlimit="10"/>
<path d="M375.752 57.313L374.954 43.3837" stroke="#FF6163" stroke-width="0.646395" stroke-miterlimit="10"/>
<path d="M323.984 27.7485L342.948 40.0653L347.642 45.5619L342.719 49.2454L323.649 33.6909L323.984 27.7485Z" fill="white" stroke="#FF6163" stroke-width="0.646395"/>
<path d="M355.449 79.0308L355.591 57.9646" stroke="#FF6163" stroke-width="0.646395" stroke-miterlimit="10"/>
<path d="M323.451 31.4904L323.635 31.2248L329.282 34.1991L338.568 42.9254L343.163 39.8195L344.585 10.6724L330.528 8.70671L324.226 17.7877L323.451 31.4904Z" fill="#172B4D"/>
<path d="M328.95 34.6763L323.463 31.8126L321.655 65.2559L341.029 84.0503L342.711 49.6543L340.274 45.682L328.95 34.6763Z" fill="#172B4D"/>
</g>
<g opacity="0.48" clip-path="url(#clip4_8_158)">
<path d="M144.187 479.975L158.006 488.404C158.006 488.404 160.052 490.016 158.128 493.487C156.204 496.959 153.873 496.117 153.873 496.117L139.521 487.857C139.521 487.857 137.821 486.291 139.526 483.079C141.499 479.344 144.187 479.975 144.187 479.975Z" fill="#FFE7E8" stroke="#FF6163" stroke-width="0.121852" stroke-miterlimit="10"/>
<path d="M144.187 479.975C144.187 479.975 146.145 481.176 144.056 485.129C142.092 488.831 139.521 487.857 139.521 487.857C139.521 487.857 137.869 486.153 139.526 483.079C141.183 480.006 143.171 479.951 144.187 479.975Z" fill="#FF6163"/>
<path d="M156.909 487.73C156.909 487.73 155.631 489.675 152.267 491.019C148.699 492.448 146.667 491.97 146.667 491.97L149.55 493.634C149.55 493.634 151.063 493.954 154.792 492.213C157.837 490.795 158.707 489.395 158.707 489.395L157.989 488.4L156.909 487.73Z" fill="#172B4D"/>
<path d="M152.01 484.785C152.01 484.785 150.773 486.527 147.113 487.714C143.453 488.901 140.941 488.689 140.941 488.689L143.824 490.353C143.824 490.353 146.159 490.65 149.457 489.287C152.514 488.015 154.259 486.16 154.259 486.16L152.491 485.076L152.01 484.785Z" fill="#FF6163"/>
<path d="M144.056 485.129C144.056 485.129 147.891 485.418 150.145 483.602L147.672 482.1C147.672 482.1 146.545 482.529 145.002 482.281C145.002 482.281 144.596 484.065 144.056 485.129Z" fill="#172B4D"/>
<path d="M142.591 483.613L142.105 484.244L142.267 487.134C142.267 487.134 143.386 486.362 144.055 485.129L143.462 483.703L142.591 483.613Z" fill="white" stroke="#FF6163" stroke-width="0.121852" stroke-miterlimit="10"/>
<path d="M144.785 480.857C144.785 480.857 144.62 480.154 144.181 479.965L141.86 483.322C141.86 483.322 142.667 483.6 142.868 483.712C143.075 483.834 143.455 484.042 143.455 484.042L144.878 483.116C144.884 483.127 145.372 481.994 144.785 480.857Z" fill="white" stroke="#FF6163" stroke-width="0.121852" stroke-miterlimit="10"/>
<path d="M158.514 492.676C158.514 492.676 156.442 494.141 153.914 494.605C151.565 495.04 151.348 494.673 151.348 494.673L153.873 496.118C153.873 496.118 154.951 496.482 156.303 495.652C157.654 494.822 158.514 492.676 158.514 492.676Z" fill="#FF6163"/>
<path d="M142.874 483.721C142.874 483.721 142.693 482.637 142.476 482.27C142.259 481.903 142.211 481.79 142.211 481.79L141.697 482.7L141.865 483.332L142.874 483.721Z" fill="white" stroke="#FF6163" stroke-width="0.121852" stroke-miterlimit="10"/>
<path d="M142.094 484.25L141.378 484.088L138.812 486.147C138.812 486.147 138.747 486.406 139.115 487.274L139.343 487.636L142.382 484.745C142.371 484.751 142.457 484.328 142.094 484.25Z" fill="white" stroke="#FF6163" stroke-width="0.121852" stroke-miterlimit="10"/>
<path d="M142.094 484.25C142.094 484.25 141.143 485.931 141.18 485.897C141.217 485.863 142.641 484.964 142.641 484.964C142.641 484.964 142.59 484.241 142.094 484.25Z" fill="white" stroke="#FF6163" stroke-width="0.121852" stroke-miterlimit="10"/>
</g>
<g clip-path="url(#clip5_8_158)">
<path d="M333.897 631.679L353.277 598.525C353.277 598.525 357.009 593.6 365.33 598.009C373.65 602.418 371.757 607.985 371.757 607.985L352.802 642.394C352.802 642.394 349.163 646.498 341.469 642.596C332.52 638.082 333.897 631.679 333.897 631.679Z" fill="#FFE7E8" stroke="#FF6163" stroke-width="0.289082" stroke-miterlimit="10"/>
<path d="M333.898 631.679C333.898 631.679 336.659 626.98 346.129 631.761C354.998 636.253 352.802 642.395 352.802 642.395C352.802 642.395 348.833 646.389 341.469 642.596C334.105 638.803 333.887 634.088 333.898 631.679Z" fill="#FF6163"/>
<path d="M351.726 601.157C351.726 601.157 356.397 604.101 359.734 612.022C363.282 620.421 362.239 625.263 362.239 625.263L366.059 618.351C366.059 618.351 366.749 614.748 362.454 605.978C358.955 598.819 355.597 596.819 355.597 596.819L353.267 598.565L351.726 601.157Z" fill="#172B4D"/>
<path d="M344.958 612.909C344.958 612.909 349.145 615.766 352.123 624.394C355.102 633.022 354.709 638.991 354.709 638.991L358.529 632.078C358.529 632.078 359.129 626.525 355.749 618.763C352.597 611.57 348.118 607.513 348.118 607.513L345.627 611.755L344.958 612.909Z" fill="#FF6163"/>
<path d="M346.129 631.761C346.129 631.761 346.644 622.651 342.235 617.385L338.783 623.317C338.783 623.317 339.849 625.973 339.331 629.643C339.331 629.643 343.581 630.528 346.129 631.761Z" fill="#172B4D"/>
<path d="M342.598 635.301L344.116 636.428L350.962 635.913C350.962 635.913 349.083 633.293 346.128 631.761L342.772 633.232L342.598 635.301Z" fill="white" stroke="#FF6163" stroke-width="0.289082" stroke-miterlimit="10"/>
<path d="M335.96 630.221C335.96 630.221 334.302 630.644 333.873 631.693L341.939 637.05C341.939 637.05 342.562 635.122 342.818 634.64C343.099 634.144 343.575 633.235 343.575 633.235L341.316 629.9C341.341 629.885 338.632 628.779 335.96 630.221Z" fill="white" stroke="#FF6163" stroke-width="0.289082" stroke-miterlimit="10"/>
<path d="M363.387 597.129C363.387 597.129 366.954 601.979 368.168 607.955C369.304 613.507 368.442 614.038 368.442 614.038L371.757 607.985C371.757 607.985 372.574 605.411 370.545 602.243C368.516 599.075 363.387 597.129 363.387 597.129Z" fill="#FF6163"/>
<path d="M342.843 634.626C342.843 634.626 340.281 635.104 339.419 635.635C338.557 636.166 338.293 636.285 338.293 636.285L340.474 637.462L341.964 637.036L342.843 634.626Z" fill="white" stroke="#FF6163" stroke-width="0.289082" stroke-miterlimit="10"/>
<path d="M344.13 636.452L343.779 638.157L348.776 644.152C348.776 644.152 349.393 644.296 351.437 643.383L352.284 642.827L345.293 635.748C345.307 635.773 344.299 635.587 344.13 636.452Z" fill="white" stroke="#FF6163" stroke-width="0.289082" stroke-miterlimit="10"/>
<path d="M344.131 636.453C344.131 636.453 348.16 638.633 348.077 638.547C347.994 638.461 345.799 635.122 345.799 635.122C345.799 635.122 344.086 635.277 344.131 636.453Z" fill="white" stroke="#FF6163" stroke-width="0.289082" stroke-miterlimit="10"/>
</g>
<defs>
<clipPath id="clip0_8_158">
<rect width="128.874" height="147.139" fill="white" transform="translate(340.936 238.255) rotate(-15.2643)"/>
</clipPath>
<clipPath id="clip1_8_158">
<rect width="58.2472" height="66.5024" fill="white" transform="translate(50.1348 520.003) rotate(152.88)"/>
</clipPath>
<clipPath id="clip2_8_158">
<rect width="22.4882" height="25.6754" fill="white" transform="translate(41.6982 134.557) rotate(82.5164)"/>
</clipPath>
<clipPath id="clip3_8_158">
<rect width="93.8566" height="62.9589" fill="white" transform="translate(375.31 108.234) rotate(-145.241)"/>
</clipPath>
<clipPath id="clip4_8_158">
<rect width="20.4102" height="16.2672" fill="white" transform="translate(151.014 475.325) rotate(61.0741)"/>
</clipPath>
<clipPath id="clip5_8_158">
<rect width="48.4212" height="38.5925" fill="white" transform="translate(322.564 615.69) rotate(-30)"/>
</clipPath>
</defs>
</svg>
