<svg width="484" height="390" viewBox="0 0 484 390" fill="none" xmlns="http://www.w3.org/2000/svg">
<g clip-path="url(#clip0_1_2)">
<path d="M435.803 93.0773L479.808 108.042H416.67L408.575 107.159L404.651 104.706L418.044 93.0773H435.803Z" fill="#172B4D"/>
<path d="M430.014 65.6007V63.2455C430.014 63.2455 424.863 53.04 424.127 52.9419C423.391 52.8437 363.54 27.9186 363.54 27.9186L386.352 72.3226L395.379 81.9394L430.014 65.6007Z" fill="white" stroke="#36B37E" stroke-width="0.598795" stroke-miterlimit="10"/>
<mask id="mask0_1_2" style="mask-type:alpha" maskUnits="userSpaceOnUse" x="363" y="27" width="68" height="56">
<path d="M430.197 65.8673V63.5121C430.197 63.5121 425.046 53.3066 424.31 53.2084C423.574 53.1103 363.723 28.1852 363.723 28.1852L386.535 72.5892L395.562 82.206L430.197 65.8673Z" fill="white" stroke="#36B37E" stroke-width="0.598795" stroke-miterlimit="10"/>
</mask>
<g mask="url(#mask0_1_2)">
<path d="M405.043 54.071L397.537 54.3163L394.103 48.2322L386.891 48.5757L390.276 54.5126L383.114 54.7579L386.45 60.7929L393.661 60.6457L401.118 60.4494L404.749 66.7298L412.451 66.6807L416.277 73.1573H424.372L420.398 66.5826L416.523 60.106L408.722 60.3023L405.043 54.071Z" fill="#C5E9DA"/>
<path d="M401.462 47.9376L397.929 41.9516L390.669 42.3442L394.103 48.232L401.462 47.9376Z" fill="#36B37E"/>
<path d="M412.745 53.7766L409.017 47.5944L401.462 47.9379L405.043 54.071L412.745 53.7766Z" fill="#36B37E"/>
<path d="M416.768 47.2506L412.99 41.1175L405.386 41.51L409.016 47.5941L416.768 47.2506Z" fill="#36B37E"/>
<path d="M420.643 53.5309L412.745 53.7762L416.522 60.1057L424.568 59.9585L432.81 59.7622L428.738 53.2856L424.764 46.9071L416.768 47.2506L420.643 53.5309Z" fill="#36B37E"/>
<path d="M379.876 48.8701L386.891 48.5757L383.604 42.6878L390.669 42.3444L387.333 36.5056L380.367 36.9472L373.547 37.3888L376.687 43.0804L369.917 43.4238L363.343 43.7673L366.336 49.4588L373.008 49.1644L376.148 55.0032L383.114 54.7579L379.876 48.8701Z" fill="#172B4D"/>
<path d="M369.377 55.1992L372.468 61.087L379.385 60.9398L376.147 55.0029L369.377 55.1992Z" fill="#36B37E"/>
<path d="M363.932 32.2858L366.876 37.8302L373.547 37.3886L370.457 31.7952L363.932 32.2858Z" fill="#36B37E"/>
<path d="M397.929 41.9517L405.386 41.5101L401.805 35.5733L398.322 29.7345L391.11 30.2742L384.046 30.8139L387.333 36.5055L394.495 36.0639L397.929 41.9517Z" fill="#36B37E"/>
<path d="M417.013 34.5918L409.311 35.0825L412.99 41.1175L420.84 40.725L417.013 34.5918Z" fill="#36B37E"/>
<path d="M432.908 46.5641L428.885 40.2837L420.84 40.7253L424.764 46.9075L432.908 46.5641Z" fill="#36B37E"/>
<path d="M379.385 60.9398L382.672 67.0239L389.835 66.9257L386.45 60.7926L379.385 60.9398Z" fill="#36B37E"/>
</g>
<path d="M416.67 64.0304L389.197 69.9182L388.511 71.7336L394.643 80.1237L416.67 64.0304Z" fill="#172B4D"/>
<path d="M432.369 65.895L459.351 0.0986328L441.984 70.8997L440.12 71.5375L432.369 65.895Z" fill="white" stroke="#36B37E" stroke-width="0.598795" stroke-miterlimit="10"/>
<path d="M442.131 70.262L434.086 61.6756L432.369 65.8952L440.12 71.5377L441.984 70.8998L442.131 70.262Z" fill="#36B37E"/>
<path d="M440.12 71.5377L434.576 66.8275L425.991 60.3018L404.258 69.0354L403.277 74.2854L408.575 81.7923L440.12 71.5377Z" fill="white" stroke="#36B37E" stroke-width="0.598795" stroke-miterlimit="10"/>
<path d="M428.984 75.1191L445.026 69.9182L435.803 93.077L422.557 93.9111L428.984 75.1191Z" fill="white" stroke="#36B37E" stroke-width="0.598795" stroke-miterlimit="10"/>
<path d="M411.764 80.6635L408.575 81.792L407.104 102.743L408.575 107.159L422.557 93.9111L428.984 75.1192L411.764 80.6635Z" fill="white" stroke="#36B37E" stroke-width="0.598795" stroke-miterlimit="10"/>
<path d="M454.69 66.8274L482.408 81.7923L411.764 80.6638L454.69 66.8274Z" fill="#C5E9DA" stroke="#36B37E" stroke-width="0.598795" stroke-miterlimit="10"/>
<path d="M408.575 81.7923V78.3577L386.352 47.7901L383.408 52.4513L404.651 104.706L407.104 102.743L408.575 81.7923Z" fill="white" stroke="#36B37E" stroke-width="0.598795" stroke-miterlimit="10"/>
<path d="M386.352 47.7898L383.408 52.451L373.499 61.6753L381.348 45.8272L386.352 47.7898Z" fill="white" stroke="#36B37E" stroke-width="0.598795" stroke-miterlimit="10"/>
<path d="M439.335 84.1474L411.764 80.6638L440.561 81.1544L439.335 84.1474Z" fill="#172B4D"/>
<path d="M414.757 79.7315L405.141 71.7338L404.749 73.1077L408.575 78.3576V81.7922L414.757 79.7315Z" fill="#172B4D"/>
<path d="M402.59 99.7008L400.334 102.498L397.39 99.7008L382.035 53.7758L383.409 52.451L402.59 99.7008Z" fill="#C5E9DA" stroke="#36B37E" stroke-width="0.598795" stroke-miterlimit="10"/>
</g>
<g clip-path="url(#clip1_1_2)">
<path d="M21.7954 382.248L122.533 380.945L83.4966 370.206L87.8965 360.899L112.864 357.472L106.468 355.989L89.2779 355.222L21.7954 382.248Z" fill="#172B4D"/>
<path d="M77.5105 334.716L74.4407 334.767L48.9108 325.255L77.7663 341.619L82.4732 337.733L77.5105 334.716Z" fill="#36B37E"/>
<path d="M77.5107 334.715L127.189 325.612L102.376 349.699L77.5107 334.715Z" fill="#172B4D"/>
<path d="M48.9108 325.255L98.4869 353.432L87.3336 355.478L60.013 357.472L48.9108 325.255Z" fill="white" stroke="#36B37E" stroke-width="0.633632" stroke-miterlimit="10" stroke-linejoin="round"/>
<path d="M98.4871 353.432L127.189 325.612L106.468 355.989L98.4871 353.432Z" fill="white" stroke="#36B37E" stroke-width="0.633632" stroke-miterlimit="10" stroke-linejoin="round"/>
<path d="M77.7666 341.619L90.6083 331.033L91.9385 332.107L87.8967 347.398L77.7666 341.619Z" fill="white" stroke="#36B37E" stroke-width="0.633632" stroke-miterlimit="10" stroke-linejoin="round"/>
<path d="M91.9383 332.107L103.552 348.574L98.4871 353.432L87.8965 347.397L91.9383 332.107Z" fill="white" stroke="#36B37E" stroke-width="0.633632" stroke-miterlimit="10" stroke-linejoin="round"/>
<path d="M106.469 355.989L87.3339 355.477L98.4872 353.432L106.469 355.989Z" fill="white" stroke="#36B37E" stroke-width="0.633632" stroke-miterlimit="10" stroke-linejoin="round"/>
<path d="M40.3668 348.114L36.2739 348.83L0.255707 341.568L42.2087 357.216L47.683 351.029L40.3668 348.114Z" fill="white" stroke="#36B37E" stroke-width="0.633632" stroke-miterlimit="10" stroke-linejoin="round"/>
<path d="M40.3669 348.114L104.627 325.613L76.6408 362.688L40.3669 348.114Z" fill="#C5E9DA" stroke="#36B37E" stroke-width="0.633632" stroke-miterlimit="10"/>
<path d="M0.255707 341.568L72.3432 368.416L57.8643 373.53L21.8461 381.865L0.255707 341.568Z" fill="white" stroke="#36B37E" stroke-width="0.633632" stroke-miterlimit="10" stroke-linejoin="round"/>
<path d="M72.3431 368.416L104.626 325.613L83.4964 370.206L72.3431 368.416Z" fill="white" stroke="#36B37E" stroke-width="0.633632" stroke-miterlimit="10" stroke-linejoin="round"/>
<path d="M42.2086 357.217L57.0967 340.494L59.0921 341.568L56.9433 362.689L42.2086 357.217Z" fill="#36B37E"/>
<path d="M59.0921 341.568L77.9709 360.95L72.343 368.416L56.9433 362.688L59.0921 341.568Z" fill="white" stroke="#36B37E" stroke-width="0.633632" stroke-miterlimit="10" stroke-linejoin="round"/>
<path d="M83.4964 370.206L57.8642 373.53L72.3431 368.416L83.4964 370.206Z" fill="white" stroke="#36B37E" stroke-width="0.633632" stroke-miterlimit="10" stroke-linejoin="round"/>
<mask id="mask1_1_2" style="mask-type:alpha" maskUnits="userSpaceOnUse" x="-1" y="341" width="74" height="41">
<path d="M0.166443 341.759L72.2077 368.309L57.9414 373.223L21.9232 381.558L0.166443 341.759Z" fill="white" stroke="#36B37E" stroke-width="0.633632" stroke-miterlimit="10" stroke-linejoin="round"/>
</mask>
<g mask="url(#mask1_1_2)">
<path d="M43.5389 369.49L35.7111 369.746L32.0786 363.456L24.5577 363.762L28.0879 370.001L20.6694 370.206L24.0973 376.496L31.6693 376.343L39.3948 376.138L43.1808 382.735L51.2644 382.633L55.255 389.383H63.6456L59.5526 382.53L55.5108 375.831L47.3249 375.985L43.5389 369.49Z" fill="#C5E9DA"/>
<path d="M39.753 363.098L36.0693 356.859L28.4973 357.268L32.0787 363.456L39.753 363.098Z" fill="#C5E9DA"/>
<path d="M51.5203 369.234L47.6832 362.74L39.753 363.098L43.539 369.49L51.5203 369.234Z" fill="#36B37E"/>
<path d="M55.7667 362.433L51.8272 355.989L43.8459 356.45L47.6831 362.74L55.7667 362.433Z" fill="#172B4D"/>
<path d="M59.7574 368.927L51.5203 369.234L55.511 375.831L63.8504 375.627L72.4457 375.422L68.1992 368.672L64.0551 362.075L55.7668 362.433L59.7574 368.927Z" fill="#36B37E"/>
<path d="M17.2416 364.069L24.5578 363.763L21.1299 357.677L28.4972 357.268L25.0182 351.182L17.7532 351.643L10.6417 352.103L13.916 358.035L6.90683 358.444L-6.10352e-05 358.802L3.12083 364.683L10.13 364.376L13.4044 370.462L20.6694 370.206L17.2416 364.069Z" fill="#36B37E"/>
<path d="M6.29282 370.717L9.56719 376.803L16.7299 376.65L13.4044 370.462L6.29282 370.717Z" fill="#36B37E"/>
<path d="M0.613831 346.835L3.73472 352.563L10.6416 352.103L7.46956 346.324L0.613831 346.835Z" fill="#36B37E"/>
<path d="M36.0692 356.859L43.8459 356.45L40.1111 350.262L36.4785 344.176L28.9577 344.739L21.5904 345.25L25.0182 351.182L32.4879 350.722L36.0692 356.859Z" fill="#36B37E"/>
<path d="M56.0225 349.239L47.9901 349.75L51.8272 355.989L60.0132 355.58L56.0225 349.239Z" fill="#36B37E"/>
<path d="M72.5991 361.666L68.3526 355.12L60.0132 355.58L64.055 362.075L72.5991 361.666Z" fill="#36B37E"/>
<path d="M16.7301 376.649L20.1579 382.991L27.6276 382.888L24.0974 376.496L16.7301 376.649Z" fill="#36B37E"/>
</g>
</g>
<defs>
<clipPath id="clip0_1_2">
<rect width="120.389" height="108.042" fill="white" transform="matrix(-1 0 0 1 483.389 0)"/>
</clipPath>
<clipPath id="clip1_1_2">
<rect width="127.445" height="64.3839" fill="white" transform="translate(0 325)"/>
</clipPath>
</defs>
</svg>
