<svg width="39" height="39" viewBox="0 0 39 39" fill="none" xmlns="http://www.w3.org/2000/svg">
<path d="M12 22.7999C12 23.1999 12.2 23.5999 12.6 23.7999L17.6 26.7999C18.2 27.1999 18.8 26.7999 18.8 26.1999V20.5999C18.8 20.3999 18.6 19.9999 18.4 19.9999L13.2 16.5999C12.8 16.3999 12 16.7999 12 17.3999V22.7999Z" fill="#091E42"/>
<path d="M19.5998 20.4001V26.0001C19.5998 26.6001 20.1998 27.0001 20.7998 26.6001L25.7998 23.6001C26.1998 23.4001 26.3998 23.0001 26.3998 22.6001V17.4001C26.3998 16.8001 25.7998 16.4001 25.1998 16.8001L19.9998 19.6001C19.7998 19.8001 19.5998 20.0001 19.5998 20.4001Z" fill="#091E42"/>
<path d="M25.2 15.7999L19.6 18.9999C19.4 19.1999 19 19.1999 18.8 18.9999L13.2 15.7999C12.6 15.3999 12.6 14.7999 13.2 14.3999L18.8 11.1999C19 10.9999 19.4 10.9999 19.6 11.1999L25.2 14.3999C25.8 14.5999 25.8 15.3999 25.2 15.7999Z" fill="#1E488F"/>
<path d="M0 34C0 34.4 0.2 34.8 0.6 35L5.6 38C6.2 38.4 6.8 38 6.8 37.4V31.8C6.8 31.6 6.6 31.2 6.4 31.2L1.2 28.2C0.6 27.8 0 28.2 0 28.8V34H0Z" fill="#091E42"/>
<path d="M7.5998 31.3999V36.9999C7.5998 37.5999 8.1998 37.9999 8.7998 37.5999L13.7998 34.5999C14.1998 34.3999 14.3998 33.9999 14.3998 33.5999V27.9999C14.3998 27.3999 13.7998 26.9999 13.1998 27.3999L7.9998 30.7999C7.7998 30.9999 7.5998 31.1999 7.5998 31.3999Z" fill="#091E42"/>
<path d="M13.2 26.7999L7.6 29.9999C7.4 30.1999 7 30.1999 6.8 29.9999L1.2 26.7999C0.6 26.3999 0.6 25.7999 1.2 25.3999L6.8 22.1999C7 21.9999 7.4 21.9999 7.6 22.1999L13.2 25.3999C13.6 25.7999 13.6 26.5999 13.2 26.7999Z" fill="#1E488F"/>
<path d="M24.2001 34C24.2001 34.4 24.4001 34.8 24.8001 35L29.8001 38C30.4001 38.4 31.0001 38 31.0001 37.4V31.8C31.0001 31.6 30.8001 31.2 30.6001 31.2L25.4001 28.2C24.8001 27.8 24.2001 28.2 24.2001 28.8V34Z" fill="#091E42"/>
<path d="M31.5998 31.3999V36.9999C31.5998 37.5999 32.1998 37.9999 32.7998 37.5999L37.7998 34.5999C38.1998 34.3999 38.3998 33.9999 38.3998 33.5999V27.9999C38.3998 27.3999 37.7998 26.9999 37.1998 27.3999L31.9998 30.7999C31.7998 30.9999 31.5998 31.1999 31.5998 31.3999Z" fill="#091E42"/>
<path d="M37.2 26.7999L31.6 29.9999C31.4 30.1999 31 30.1999 30.8 29.9999L25.2 26.7999C24.6 26.3999 24.6 25.7999 25.2 25.3999L30.8 22.1999C31 21.9999 31.4 21.9999 31.6 22.1999L37.2 25.3999C37.8 25.7999 37.8 26.5999 37.2 26.7999Z" fill="#1E488F"/>
<path d="M0 11.8C0 12.2 0.2 12.6 0.6 12.8L5.6 15.8C6 16 6.8 15.6 6.8 15V9.19997C6.8 8.99997 6.6 8.59997 6.4 8.59997L1.2 5.59997C0.6 5.39997 0 5.59997 0 6.39997V11.8Z" fill="#091E42"/>
<path d="M7.5998 9.20011V14.8001C7.5998 15.4001 8.1998 15.8001 8.7998 15.4001L13.7998 12.4001C14.1998 12.2001 14.3998 11.8001 14.3998 11.4001V6.40011C14.3998 5.80011 13.7998 5.40011 13.1998 5.80011L7.9998 8.60011C7.7998 8.80011 7.5998 9.00011 7.5998 9.20011Z" fill="#091E42"/>
<path d="M13.2 4.6L7.6 7.8C7.4 8 7 8 6.8 7.8L1.2 4.6C0.6 4.2 0.6 3.6 1.2 3.2L6.8 0C7 0 7.4 0 7.6 0.2L13.2 3.4C13.6 3.6 13.6 4.4 13.2 4.6Z" fill="#1E488F"/>
<path d="M24.2001 11.8C24.2001 12.2 24.4001 12.6 24.8001 12.8L29.8001 15.8C30.4001 16.2 31.0001 15.8 31.0001 15.2V9.19998C31.0001 8.99998 30.8001 8.59998 30.6001 8.59998L25.4001 5.59998C24.8001 5.19998 24.2001 5.59998 24.2001 6.19998V11.8Z" fill="#091E42"/>
<path d="M31.5998 9.20011V14.8001C31.5998 15.4001 32.1998 15.8001 32.7998 15.4001L37.7998 12.4001C38.1998 12.2001 38.3998 11.8001 38.3998 11.4001V6.40011C38.3998 5.80011 37.7998 5.40011 37.1998 5.80011L31.9998 8.60011C31.7998 8.80011 31.5998 9.00011 31.5998 9.20011Z" fill="#091E42"/>
<path d="M37.2 4.59993L31.6 7.99993C31.4 7.99993 31.2 7.99993 30.8 7.99993L25.2 4.79993C24.6 4.39993 24.6 3.79993 25.2 3.39993L30.8 0.199927C31 -7.32392e-05 31.4 -7.32392e-05 31.6 0.199927L37.2 3.39993C37.8 3.59993 37.8 4.39993 37.2 4.59993Z" fill="#1E488F"/>
</svg>
