<svg width="44" height="44" viewBox="0 0 44 44" fill="none" xmlns="http://www.w3.org/2000/svg">
<path d="M34.2706 20.8957H43.7044C43.8518 20.8957 43.9992 20.7486 43.9992 20.6014C43.3359 10.7419 36.1868 2.57465 26.753 0.514453C26.5319 0.440875 26.3108 0.735189 26.5319 0.955925C30.954 5.88569 33.7546 12.9492 34.0494 20.675C33.9757 20.8221 34.1232 20.8957 34.2706 20.8957Z" fill="#091E42"/>
<path d="M22.1841 0C22.1104 0 22.0367 0 21.963 0C21.8893 0 21.8156 0 21.7419 0C16.0668 4.34114 12.5292 12.0669 12.1606 20.602C12.1606 20.7492 12.308 20.8963 12.4555 20.8963H31.4705C31.6179 20.8963 31.7653 20.7492 31.7653 20.602C31.4705 12.0669 27.8591 4.34114 22.1841 0Z" fill="#36B37E"/>
<path d="M12.4555 23.1035C12.308 23.1035 12.1606 23.2507 12.1606 23.3978C12.5292 32.0065 16.0668 39.6587 21.7419 43.9998C21.8156 43.9998 21.8893 43.9998 21.963 43.9998C22.0367 43.9998 22.1104 43.9998 22.1841 43.9998C27.8591 39.6587 31.3968 31.9329 31.7653 23.3978C31.7653 23.2507 31.6179 23.1035 31.4705 23.1035H12.4555Z" fill="#091E42"/>
<path d="M33.9758 23.3243C33.681 31.05 30.954 38.1136 26.5319 43.0433C26.3845 43.2641 26.5319 43.5584 26.753 43.4848C36.1868 41.4246 43.4096 33.2574 43.9992 23.3978C43.9992 23.2507 43.8518 23.1035 43.7044 23.1035H34.2706C34.1232 23.1035 33.9758 23.2507 33.9758 23.3243Z" fill="#36B37E"/>
<path d="M9.72832 23.1035H0.294487C0.147083 23.1035 -0.000320435 23.2507 -0.000320435 23.3978C0.589294 33.2574 7.81207 41.4246 17.2459 43.4848C17.467 43.5584 17.6881 43.2641 17.467 43.0433C12.9712 38.1136 10.2442 31.05 9.94943 23.3243C10.0231 23.2507 9.87573 23.1035 9.72832 23.1035Z" fill="#36B37E"/>
<path d="M10.0231 20.675C10.3179 12.9492 13.0449 5.88569 17.467 0.955925C17.6144 0.735189 17.467 0.440875 17.2459 0.514453C7.81207 2.57465 0.589294 10.7419 -0.000320435 20.6014C-0.000320435 20.7486 0.147083 20.8957 0.294487 20.8957H9.72832C9.87573 20.8957 10.0231 20.8221 10.0231 20.675Z" fill="#091E42"/>
</svg>
