<svg width="44" height="44" viewBox="0 0 44 44" fill="none" xmlns="http://www.w3.org/2000/svg">
<g clip-path="url(#clip0_1_357)">
<path d="M34.2705 20.8962H43.7044C43.8518 20.8962 43.9992 20.7491 43.9992 20.6019C43.3359 10.7424 36.1868 2.57514 26.7529 0.514942C26.5318 0.441363 26.3107 0.735677 26.5318 0.956413C30.9539 5.88618 33.7546 12.9497 34.0494 20.6755C33.9757 20.8226 34.1231 20.8962 34.2705 20.8962Z" fill="#091E42"/>
<path d="M22.1841 0.000183105C22.1104 0.000183105 22.0367 0.000183105 21.963 0.000183105C21.8893 0.000183105 21.8156 0.000183105 21.7419 0.000183105C16.0668 4.34132 12.5292 12.0671 12.1606 20.6022C12.1606 20.7493 12.308 20.8965 12.4555 20.8965H31.4705C31.6179 20.8965 31.7653 20.7493 31.7653 20.6022C31.4705 12.0671 27.8591 4.34132 22.1841 0.000183105Z" fill="#FF6163"/>
<path d="M12.4555 23.1038C12.308 23.1038 12.1606 23.2509 12.1606 23.3981C12.5292 32.0068 16.0668 39.6589 21.7419 44.0001C21.8156 44.0001 21.8893 44.0001 21.963 44.0001C22.0367 44.0001 22.1104 44.0001 22.1841 44.0001C27.8591 39.6589 31.3968 31.9332 31.7653 23.3981C31.7653 23.2509 31.6179 23.1038 31.4705 23.1038H12.4555Z" fill="#091E42"/>
<path d="M33.9758 23.3245C33.6809 31.0502 30.954 38.1138 26.5319 43.0436C26.3845 43.2643 26.5319 43.5586 26.753 43.485C36.1868 41.4248 43.4096 33.2576 43.9992 23.3981C43.9992 23.2509 43.8518 23.1038 43.7044 23.1038H34.2706C34.1232 23.1038 33.9758 23.2509 33.9758 23.3245Z" fill="#FF6163"/>
<path d="M9.72831 23.1038H0.294472C0.147068 23.1038 -0.000335693 23.2509 -0.000335693 23.3981C0.589279 33.2576 7.81206 41.4248 17.2459 43.485C17.467 43.5586 17.6881 43.2643 17.467 43.0436C12.9712 38.1138 10.2442 31.0502 9.94941 23.3245C10.0231 23.2509 9.87571 23.1038 9.72831 23.1038Z" fill="#FF6163"/>
<path d="M10.0231 20.6755C10.3179 12.9497 13.0449 5.88618 17.467 0.956413C17.6144 0.735677 17.467 0.441363 17.2459 0.514942C7.81206 2.57514 0.589279 10.7424 -0.000335693 20.6019C-0.000335693 20.7491 0.147068 20.8962 0.294472 20.8962H9.72831C9.87571 20.8962 10.0231 20.8226 10.0231 20.6755Z" fill="#091E42"/>
</g>
<defs>
<clipPath id="clip0_1_357">
<rect width="44" height="44" fill="white" transform="translate(-0.000335693 0.000183105)"/>
</clipPath>
</defs>
</svg>
